<?xml version="1.0" encoding="UTF-8" standalone="no"?>
<!DOCTYPE svg PUBLIC "-//W3C//DTD SVG 1.1//EN" "http://www.w3.org/Graphics/SVG/1.1/DTD/svg11.dtd">
<svg width="100%" height="100%" viewBox="0 0 1795 233" version="1.1" xmlns="http://www.w3.org/2000/svg" xmlns:xlink="http://www.w3.org/1999/xlink" xml:space="preserve" xmlns:serif="http://www.serif.com/" style="fill-rule:evenodd;clip-rule:evenodd;stroke-linejoin:round;stroke-miterlimit:2;">
    <g transform="matrix(1,0,0,1,-144.06,-24.4209)">
        <path d="M177.96,39.121L177.96,215.521C177.96,237.721 168.96,241.621 160.56,241.621L160.56,243.121L198.36,243.121L198.36,241.621C189.96,241.621 180.96,237.721 180.96,215.521L180.96,40.021C180.96,37.321 182.76,36.121 185.16,37.021C216.66,49.321 248.76,87.421 268.56,124.921C269.76,127.321 269.76,130.321 268.26,132.721C257.76,149.521 250.56,167.521 250.56,188.821C250.56,205.021 260.76,214.621 270.66,214.621C291.06,214.621 295.56,184.021 295.56,169.921C295.56,155.821 292.56,137.821 286.26,119.821C285.36,117.121 285.96,114.421 287.76,112.321C310.26,87.121 339.06,66.121 358.86,47.521C360.96,45.721 362.16,46.321 362.16,49.021L362.16,215.521C362.16,237.721 353.16,241.621 344.76,241.621L344.76,243.121L403.56,243.121L403.56,241.621C395.16,241.621 386.16,237.721 386.16,215.521L386.16,60.721C386.16,38.521 395.16,34.621 403.56,34.621L403.56,33.121L369.36,33.121C346.86,57.421 312.66,80.521 286.56,109.021C284.76,111.121 282.96,110.521 281.76,108.121C262.26,67.921 225.96,30.121 171.66,30.121C161.16,30.121 151.86,31.321 144.06,33.721L144.66,35.221C150.66,33.721 157.56,32.821 165.06,32.821C169.56,32.821 177.96,32.821 177.96,39.121ZM269.76,136.021C271.26,133.621 273.06,133.921 274.26,136.321C283.26,155.521 288.36,173.521 288.36,187.621C288.36,203.521 279.66,211.621 270.96,211.621C262.56,211.621 253.56,203.821 253.56,188.221C253.56,169.021 259.86,151.921 269.76,136.021Z" style="fill:rgb(129,129,129);fill-rule:nonzero;"/>
        <path d="M519.06,30.121C450.96,30.121 417.06,84.121 417.06,138.121C417.06,198.121 456.36,246.121 519.06,246.121C581.76,246.121 621.06,198.121 621.06,138.121C621.06,84.121 587.16,30.121 519.06,30.121ZM519.06,243.121C466.26,243.121 441.06,190.321 441.06,137.521C441.06,85.321 466.26,33.121 519.06,33.121C571.86,33.121 597.06,85.321 597.06,137.521C597.06,190.321 571.86,243.121 519.06,243.121Z" style="fill:rgb(129,129,129);fill-rule:nonzero;"/>
        <path d="M741.06,30.121C672.96,30.121 639.06,84.121 639.06,138.121C639.06,198.121 678.36,246.121 741.06,246.121C803.76,246.121 843.06,198.121 843.06,138.121C843.06,84.121 809.16,30.121 741.06,30.121ZM741.06,243.121C688.26,243.121 663.06,190.321 663.06,137.521C663.06,85.321 688.26,33.121 741.06,33.121C793.86,33.121 819.06,85.321 819.06,137.521C819.06,190.321 793.86,243.121 741.06,243.121Z" style="fill:rgb(129,129,129);fill-rule:nonzero;"/>
        <path d="M1030.86,168.721C1030.86,177.721 1029.96,177.721 1027.86,169.021C1010.76,95.521 957.06,30.721 868.26,30.421C857.76,30.421 848.46,31.621 840.66,34.021L841.26,35.521C847.26,34.021 854.16,33.121 861.66,33.121C864.36,33.121 866.76,33.121 869.46,33.421C872.16,33.721 873.96,35.821 873.96,38.521L873.96,215.521C873.96,237.721 864.96,241.621 856.56,241.621L856.56,243.121L894.36,243.121L894.36,241.621C885.96,241.621 876.96,237.721 876.96,215.521L876.96,39.121C876.96,36.421 878.76,34.921 881.46,35.521C960.96,54.721 1030.86,183.121 1030.86,243.121L1033.86,243.121L1033.86,60.721C1033.86,38.521 1042.86,34.621 1051.26,34.621L1051.26,33.121L1013.46,33.121L1013.46,34.621C1021.86,34.621 1030.86,38.521 1030.86,60.721L1030.86,168.721Z" style="fill:rgb(129,129,129);fill-rule:nonzero;"/>
        <path d="M1100.16,252.421C1080.96,252.421 1080.96,225.721 1096.56,226.921C1095.06,220.921 1089.06,217.621 1083.06,217.621C1056.96,217.621 1056.96,256.621 1096.56,256.621C1119.06,256.621 1152.36,233.221 1152.36,190.921L1152.36,60.721C1152.36,38.521 1161.36,34.621 1169.76,34.621L1169.76,33.121L1110.96,33.121L1110.96,34.621C1119.36,34.621 1128.36,38.521 1128.36,60.721L1128.36,203.521C1128.36,234.721 1123.56,252.421 1100.16,252.421Z" style="fill:rgb(129,129,129);fill-rule:nonzero;"/>
        <path d="M1285.26,30.121C1217.16,30.121 1183.26,84.121 1183.26,138.121C1183.26,198.121 1222.56,246.121 1285.26,246.121C1347.96,246.121 1387.26,198.121 1387.26,138.121C1387.26,84.121 1353.36,30.121 1285.26,30.121ZM1285.26,243.121C1232.46,243.121 1207.26,190.321 1207.26,137.521C1207.26,85.321 1232.46,33.121 1285.26,33.121C1338.06,33.121 1363.26,85.321 1363.26,137.521C1363.26,190.321 1338.06,243.121 1285.26,243.121Z" style="fill:rgb(129,129,129);fill-rule:nonzero;"/>
        <path d="M1571.16,160.921C1572.36,155.221 1573.56,154.921 1573.56,161.221L1573.56,215.521C1573.56,237.121 1577.76,246.121 1591.26,246.121C1597.56,246.121 1607.76,241.621 1615.26,234.121L1614.36,232.921C1610.76,235.621 1607.46,237.421 1604.76,237.421C1597.86,237.421 1597.56,226.921 1597.56,222.421L1597.56,60.721C1597.56,38.521 1606.56,34.621 1614.96,34.621L1614.96,33.121L1556.16,33.121L1556.16,34.621C1564.56,34.621 1573.56,38.521 1573.56,60.721L1573.56,106.021C1573.56,140.821 1566.96,234.421 1501.26,234.421C1454.46,234.421 1438.56,185.821 1438.56,143.821C1438.56,101.821 1455.06,54.421 1486.86,33.121L1486.86,31.621C1479.06,27.121 1466.16,24.421 1452.66,24.421C1428.36,24.421 1402.26,33.421 1402.26,55.921C1402.26,67.921 1411.56,75.721 1421.16,75.721C1426.56,75.721 1432.26,73.321 1436.16,67.621C1427.76,67.621 1422.96,61.921 1422.96,53.821C1422.96,35.521 1441.26,28.021 1458.36,28.021C1465.26,28.021 1472.16,29.221 1477.56,31.321C1479.96,32.221 1480.26,34.021 1478.16,35.821C1443.66,63.121 1419.96,121.921 1419.96,165.421C1419.96,208.921 1439.76,246.121 1489.56,246.121C1536.36,246.121 1561.86,207.421 1571.16,160.921Z" style="fill:rgb(129,129,129);fill-rule:nonzero;"/>
        <path d="M1665.66,60.721C1665.66,38.521 1674.66,34.621 1683.06,34.621L1683.06,33.121L1624.26,33.121L1624.26,34.621C1632.66,34.621 1641.66,38.521 1641.66,60.721L1641.66,215.521C1641.66,237.721 1632.66,241.621 1624.26,241.621L1624.26,243.121L1764.96,243.121L1770.36,202.921L1768.86,202.921C1757.46,238.321 1743.36,240.121 1687.26,240.121L1670.16,240.121C1667.46,240.121 1665.66,238.321 1665.66,235.621L1665.66,60.721Z" style="fill:rgb(129,129,129);fill-rule:nonzero;"/>
        <path d="M1837.86,110.821C1820.76,105.121 1812.66,90.121 1812.66,71.821C1812.66,41.821 1836.66,33.121 1868.46,33.121C1900.56,33.121 1914.06,47.221 1917.06,77.221L1918.56,77.221L1918.56,26.221L1917.06,26.221C1913.46,31.321 1908.96,32.521 1902.66,32.521C1894.26,32.521 1883.16,30.121 1868.46,30.121C1809.06,30.421 1789.56,49.621 1789.56,71.821C1789.56,94.621 1811.46,108.721 1833.36,113.221C1836.06,113.821 1836.06,114.721 1833.36,115.321C1809.36,122.221 1783.86,143.521 1783.86,178.021C1783.86,213.421 1808.46,246.121 1866.06,246.121C1917.06,246.121 1938.36,217.621 1938.36,191.821C1938.36,175.621 1927.26,167.821 1916.46,167.821C1910.16,167.821 1903.86,170.521 1899.96,175.621C1926.36,179.221 1929.06,243.121 1867.86,243.121C1828.56,243.121 1807.86,212.521 1807.86,172.921C1807.86,143.821 1824.66,124.321 1841.76,117.721C1844.16,116.821 1847.76,116.521 1850.46,117.121C1857.36,118.921 1869.36,122.521 1879.26,122.521C1887.66,122.521 1894.26,119.821 1894.26,111.121C1894.26,103.321 1888.86,100.921 1881.36,100.921C1870.26,100.921 1854.36,106.921 1846.26,110.221C1843.56,111.421 1840.26,111.721 1837.86,110.821ZM1855.26,112.021C1861.86,109.021 1874.16,103.921 1882.56,103.921C1887.66,103.921 1891.26,105.721 1891.26,111.121C1891.26,117.421 1885.86,119.521 1878.96,119.521C1871.16,119.521 1860.96,116.821 1855.26,115.021C1852.56,114.121 1852.86,113.221 1855.26,112.021Z" style="fill:rgb(129,129,129);fill-rule:nonzero;"/>
    </g>
</svg>
