<?xml version="1.0" encoding="UTF-8" standalone="no"?>
<!DOCTYPE svg PUBLIC "-//W3C//DTD SVG 1.1//EN" "http://www.w3.org/Graphics/SVG/1.1/DTD/svg11.dtd">
<svg width="100%" height="100%" viewBox="0 0 271 111" version="1.1" xmlns="http://www.w3.org/2000/svg" xmlns:xlink="http://www.w3.org/1999/xlink" xml:space="preserve" xmlns:serif="http://www.serif.com/" style="fill-rule:evenodd;clip-rule:evenodd;stroke-linejoin:round;stroke-miterlimit:2;">
    <g>
        <g transform="matrix(-1,0,0,1,138.688,0.188)">
            <path id="a" d="M61.719,55.313L61.719,78.047C61.719,88.62 61.979,95.742 62.5,99.414C63.021,103.086 64.089,104.922 65.703,104.922C66.589,104.922 68.073,104.74 70.156,104.375C72.24,104.01 73.594,103.828 74.219,103.828C74.792,103.828 75.365,104.063 75.938,104.531C76.51,105 76.797,105.495 76.797,106.016C76.797,107.057 76.589,107.852 76.172,108.398C75.755,108.945 74.844,109.219 73.438,109.219C71.719,108.958 68.359,108.633 63.359,108.242C58.359,107.852 51.953,107.656 44.141,107.656C36.641,107.656 30.065,107.76 24.414,107.969C18.763,108.177 14.076,108.411 10.352,108.672C6.628,108.932 4.714,109.063 4.609,109.063C3.099,109.063 1.953,108.893 1.172,108.555C0.391,108.216 0,107.552 0,106.563C0,104.635 0.781,103.672 2.344,103.672C2.969,103.672 4.505,103.932 6.953,104.453C9.401,104.974 11.458,105.234 13.125,105.234C15.26,105.234 16.823,104.362 17.813,102.617C18.802,100.872 19.44,97.982 19.727,93.945C20.013,89.909 20.156,83.802 20.156,75.625L20.156,37.734C20.156,24.818 19.766,15.99 18.984,11.25C18.203,6.51 16.458,4.141 13.75,4.141C12.344,4.141 10.977,4.232 9.648,4.414C8.32,4.596 7.292,4.766 6.563,4.922C5.938,5.339 5.339,5.547 4.766,5.547C4.245,5.547 3.424,5.13 2.305,4.297C1.185,3.464 0.625,2.604 0.625,1.719C0.625,0.573 1.354,0 2.813,0C2.396,0 4.245,0.117 8.359,0.352C12.474,0.586 17.721,0.794 24.102,0.977C30.482,1.159 36.953,1.25 43.516,1.25C47.63,1.25 52.943,1.159 59.453,0.977C65.964,0.794 72.031,0.612 77.656,0.43C83.281,0.247 87.422,0.156 90.078,0.156C96.589,0.156 101.732,0.417 105.508,0.938C109.284,1.458 112.5,2.578 115.156,4.297C118.229,6.172 120.651,8.88 122.422,12.422C124.193,15.964 125.078,19.922 125.078,24.297C125.078,26.953 124.375,30.013 122.969,33.477C121.563,36.94 119.766,39.844 117.578,42.188C114.505,45.469 111.12,47.578 107.422,48.516C103.724,49.453 99.219,49.922 93.906,49.922C91.927,49.922 90.521,49.987 89.688,50.117C88.854,50.247 88.438,50.599 88.438,51.172C88.438,51.693 88.932,51.953 89.922,51.953C95.286,52.214 99.31,52.474 101.992,52.734C104.674,52.995 107.578,53.698 110.703,54.844C115.234,56.563 118.49,58.763 120.469,61.445C122.448,64.128 123.659,67.174 124.102,70.586C124.544,73.997 124.766,78.88 124.766,85.234C124.766,86.172 124.714,87.422 124.609,88.984C124.505,90.547 124.453,91.797 124.453,92.734C124.453,100.859 125.729,104.922 128.281,104.922C129.167,104.922 130.443,104.714 132.109,104.297C133.776,103.88 134.948,103.672 135.625,103.672C137.344,103.672 138.203,104.74 138.203,106.875C138.203,107.188 137.904,107.578 137.305,108.047C136.706,108.516 136.198,108.75 135.781,108.75C134.635,108.75 133.138,108.672 131.289,108.516C129.44,108.359 127.227,108.203 124.648,108.047C122.07,107.891 119.167,107.813 115.938,107.813C111.927,107.813 108.464,107.891 105.547,108.047C102.63,108.203 100.326,108.359 98.633,108.516C96.94,108.672 95.885,108.75 95.469,108.75C90.781,108.75 87.5,107.318 85.625,104.453C83.75,101.589 82.813,97.266 82.813,91.484L82.813,73.75C82.813,68.438 82.214,64.271 81.016,61.25C79.818,58.229 77.852,56.094 75.117,54.844C72.383,53.594 68.724,52.969 64.141,52.969C62.526,52.969 61.719,53.75 61.719,55.313ZM61.719,14.844L61.719,43.203C61.719,46.172 61.836,48.008 62.07,48.711C62.305,49.414 62.995,49.766 64.141,49.766C64.661,49.714 65.156,49.674 65.625,49.648C66.094,49.622 66.875,49.609 67.969,49.609C70.833,49.609 73.503,48.854 75.977,47.344C78.451,45.833 80.313,43.802 81.563,41.25C82.5,39.479 83.138,37.253 83.477,34.57C83.815,31.888 83.984,28.724 83.984,25.078C83.984,16.693 82.5,11.029 79.531,8.086C76.563,5.143 71.745,3.672 65.078,3.672C64.036,3.672 63.281,4.049 62.813,4.805C62.344,5.56 62.044,6.654 61.914,8.086C61.784,9.518 61.719,11.771 61.719,14.844ZM40.781,7.344C39.531,7.344 38.503,7.799 37.695,8.711C36.888,9.622 36.484,10.807 36.484,12.266C36.484,13.984 37.057,15.755 38.203,17.578C38.568,18.151 38.88,18.594 39.141,18.906C39.401,19.219 39.635,19.583 39.844,20C40.052,20.417 40.156,20.833 40.156,21.25C40.156,21.875 39.935,23.503 39.492,26.133C39.049,28.763 38.828,30.651 38.828,31.797C38.828,35.547 39.479,37.422 40.781,37.422C42.135,37.422 42.813,35.495 42.813,31.641C42.813,30.391 42.682,28.464 42.422,25.859C42.161,23.255 42.031,21.51 42.031,20.625C42.031,20.26 42.513,19.115 43.477,17.188C44.44,15.26 44.922,13.672 44.922,12.422C44.922,10.859 44.466,9.622 43.555,8.711C42.643,7.799 41.719,7.344 40.781,7.344ZM97.734,7.969C97.005,7.969 96.315,8.138 95.664,8.477C95.013,8.815 94.688,9.245 94.688,9.766C94.688,13.203 95.911,15.807 98.359,17.578C100.339,18.932 101.523,19.935 101.914,20.586C102.305,21.237 102.5,23.047 102.5,26.016C102.5,28.672 102.083,31.38 101.25,34.141C100.417,36.901 100,38.568 100,39.141C100,39.818 100.417,40.156 101.25,40.156C102.344,40.156 103.203,38.932 103.828,36.484C104.453,34.036 104.766,30.547 104.766,26.016C104.766,24.974 104.609,23.724 104.297,22.266C103.984,20.807 103.828,20.052 103.828,20C103.828,19.792 103.88,19.479 103.984,19.063C104.089,18.646 104.141,18.359 104.141,18.203C104.141,16.172 104.036,14.688 103.828,13.75C103.464,12.448 102.617,11.159 101.289,9.883C99.961,8.607 98.776,7.969 97.734,7.969ZM40.625,97.109C41.51,97.109 42.344,96.563 43.125,95.469C43.906,94.375 44.297,93.047 44.297,91.484C44.297,90.182 44.049,88.802 43.555,87.344C43.06,85.885 42.552,84.635 42.031,83.594C41.51,82.552 41.25,81.979 41.25,81.875C41.25,80.26 41.406,77.865 41.719,74.688C42.031,71.51 42.188,69.375 42.188,68.281C42.188,65.313 41.406,63.828 39.844,63.828C38.646,63.828 38.047,64.505 38.047,65.859C38.047,68.516 38.255,71.641 38.672,75.234C39.089,78.828 39.297,80.729 39.297,80.938C39.297,81.198 38.737,82.63 37.617,85.234C36.497,87.839 35.938,89.87 35.938,91.328C35.938,93.047 36.432,94.44 37.422,95.508C38.411,96.576 39.479,97.109 40.625,97.109ZM28.125,25.703C28.125,27.109 28.997,28.685 30.742,30.43C32.487,32.174 33.906,33.177 35,33.438C36.302,33.438 36.953,32.578 36.953,30.859C36.953,28.255 36.406,26.003 35.313,24.102C34.219,22.201 32.943,21.25 31.484,21.25C30.495,21.25 29.688,21.667 29.063,22.5C28.438,23.333 28.125,24.401 28.125,25.703ZM44.766,31.172C44.766,31.693 44.909,32.253 45.195,32.852C45.482,33.451 45.885,33.75 46.406,33.75C47.083,33.75 48.503,32.526 50.664,30.078C52.826,27.63 53.906,25.651 53.906,24.141C53.906,23.307 53.62,22.591 53.047,21.992C52.474,21.393 51.693,21.094 50.703,21.094C49.089,21.094 47.695,22.161 46.523,24.297C45.352,26.432 44.766,28.724 44.766,31.172ZM98.203,34.531C99.036,34.531 99.453,33.464 99.453,31.328C99.453,29.766 99.193,28.242 98.672,26.758C98.151,25.273 97.344,24.089 96.25,23.203C95.521,22.526 94.583,22.188 93.438,22.188C91.406,22.188 90.391,23.203 90.391,25.234C90.391,26.849 91.354,28.802 93.281,31.094C95.208,33.385 96.849,34.531 98.203,34.531ZM116.641,25.859C116.641,23.724 115.521,22.656 113.281,22.656C111.771,22.656 110.482,23.802 109.414,26.094C108.346,28.385 107.813,30.495 107.813,32.422C107.813,33.828 108.125,34.531 108.75,34.531C110,34.531 111.628,33.607 113.633,31.758C115.638,29.909 116.641,27.943 116.641,25.859ZM26.563,78.984C26.563,81.589 27.786,82.891 30.234,82.891C32.109,82.891 33.62,81.641 34.766,79.141C35.911,76.641 36.484,74.089 36.484,71.484C36.484,70.911 36.38,70.339 36.172,69.766C35.964,69.193 35.677,68.906 35.313,68.906C34.427,68.906 32.747,70.273 30.273,73.008C27.799,75.742 26.563,77.734 26.563,78.984ZM49.766,82.031C51.016,82.031 51.992,81.693 52.695,81.016C53.398,80.339 53.75,79.609 53.75,78.828C53.75,77.943 53.242,76.706 52.227,75.117C51.211,73.529 49.987,72.096 48.555,70.82C47.122,69.544 45.911,68.906 44.922,68.906C44.505,68.906 44.297,69.297 44.297,70.078C44.297,78.047 46.12,82.031 49.766,82.031ZM40.313,42.5C40.052,42.5 39.831,42.578 39.648,42.734C39.466,42.891 39.245,43.151 38.984,43.516C38.724,43.88 38.568,44.089 38.516,44.141C36.953,46.536 35.26,48.177 33.438,49.063C32.031,49.844 31.328,50.443 31.328,50.859C31.328,51.432 32.083,52.135 33.594,52.969C34.948,53.75 36.302,55.065 37.656,56.914C39.01,58.763 39.948,59.688 40.469,59.688C41.094,59.688 41.771,59.141 42.5,58.047C43.333,56.849 44.141,55.938 44.922,55.313C45.703,54.688 46.732,53.971 48.008,53.164C49.284,52.357 49.922,51.745 49.922,51.328C49.922,50.964 48.932,50.169 46.953,48.945C44.974,47.721 43.438,46.328 42.344,44.766C41.354,43.255 40.677,42.5 40.313,42.5ZM104.297,97.109C105.13,97.109 105.977,96.576 106.836,95.508C107.695,94.44 108.125,93.099 108.125,91.484C108.125,89.766 107.591,87.682 106.523,85.234C105.456,82.786 104.922,81.667 104.922,81.875C104.922,80.26 105.078,77.865 105.391,74.688C105.703,71.51 105.859,69.375 105.859,68.281C105.859,65.313 105.078,63.828 103.516,63.828C102.422,63.828 101.875,64.505 101.875,65.859C101.875,67.943 102.057,70.807 102.422,74.453C102.786,78.099 102.969,80.26 102.969,80.938C102.969,81.198 102.409,82.63 101.289,85.234C100.169,87.839 99.609,89.87 99.609,91.328C99.609,93.047 100.104,94.44 101.094,95.508C102.083,96.576 103.151,97.109 104.297,97.109ZM90.234,78.984C90.234,81.589 91.458,82.891 93.906,82.891C95.729,82.891 97.201,81.68 98.32,79.258C99.44,76.836 100,74.245 100,71.484C100,69.766 99.661,68.906 98.984,68.906C98.099,68.906 96.419,70.273 93.945,73.008C91.471,75.742 90.234,77.734 90.234,78.984ZM113.438,82.031C114.688,82.031 115.664,81.693 116.367,81.016C117.07,80.339 117.422,79.609 117.422,78.828C117.422,77.943 116.914,76.706 115.898,75.117C114.883,73.529 113.659,72.096 112.227,70.82C110.794,69.544 109.583,68.906 108.594,68.906C108.177,68.906 107.969,69.297 107.969,70.078C107.969,78.047 109.792,82.031 113.438,82.031Z" style="fill:white;fill-rule:nonzero;"/>
            <path id="a1" serif:id="a" d="M61.719,55.313L61.719,78.047C61.719,88.62 61.979,95.742 62.5,99.414C63.021,103.086 64.089,104.922 65.703,104.922C66.589,104.922 68.073,104.74 70.156,104.375C72.24,104.01 73.594,103.828 74.219,103.828C74.792,103.828 75.365,104.063 75.938,104.531C76.51,105 76.797,105.495 76.797,106.016C76.797,107.057 76.589,107.852 76.172,108.398C75.755,108.945 74.844,109.219 73.438,109.219C71.719,108.958 68.359,108.633 63.359,108.242C58.359,107.852 51.953,107.656 44.141,107.656C36.641,107.656 30.065,107.76 24.414,107.969C18.763,108.177 14.076,108.411 10.352,108.672C6.628,108.932 4.714,109.063 4.609,109.063C3.099,109.063 1.953,108.893 1.172,108.555C0.391,108.216 0,107.552 0,106.563C0,104.635 0.781,103.672 2.344,103.672C2.969,103.672 4.505,103.932 6.953,104.453C9.401,104.974 11.458,105.234 13.125,105.234C15.26,105.234 16.823,104.362 17.813,102.617C18.802,100.872 19.44,97.982 19.727,93.945C20.013,89.909 20.156,83.802 20.156,75.625L20.156,37.734C20.156,24.818 19.766,15.99 18.984,11.25C18.203,6.51 16.458,4.141 13.75,4.141C12.344,4.141 10.977,4.232 9.648,4.414C8.32,4.596 7.292,4.766 6.563,4.922C5.938,5.339 5.339,5.547 4.766,5.547C4.245,5.547 3.424,5.13 2.305,4.297C1.185,3.464 0.625,2.604 0.625,1.719C0.625,0.573 1.354,0 2.813,0C2.396,0 4.245,0.117 8.359,0.352C12.474,0.586 17.721,0.794 24.102,0.977C30.482,1.159 36.953,1.25 43.516,1.25C47.63,1.25 52.943,1.159 59.453,0.977C65.964,0.794 72.031,0.612 77.656,0.43C83.281,0.247 87.422,0.156 90.078,0.156C96.589,0.156 101.732,0.417 105.508,0.938C109.284,1.458 112.5,2.578 115.156,4.297C118.229,6.172 120.651,8.88 122.422,12.422C124.193,15.964 125.078,19.922 125.078,24.297C125.078,26.953 124.375,30.013 122.969,33.477C121.563,36.94 119.766,39.844 117.578,42.188C114.505,45.469 111.12,47.578 107.422,48.516C103.724,49.453 99.219,49.922 93.906,49.922C91.927,49.922 90.521,49.987 89.688,50.117C88.854,50.247 88.438,50.599 88.438,51.172C88.438,51.693 88.932,51.953 89.922,51.953C95.286,52.214 99.31,52.474 101.992,52.734C104.674,52.995 107.578,53.698 110.703,54.844C115.234,56.563 118.49,58.763 120.469,61.445C122.448,64.128 123.659,67.174 124.102,70.586C124.544,73.997 124.766,78.88 124.766,85.234C124.766,86.172 124.714,87.422 124.609,88.984C124.505,90.547 124.453,91.797 124.453,92.734C124.453,100.859 125.729,104.922 128.281,104.922C129.167,104.922 130.443,104.714 132.109,104.297C133.776,103.88 134.948,103.672 135.625,103.672C137.344,103.672 138.203,104.74 138.203,106.875C138.203,107.188 137.904,107.578 137.305,108.047C136.706,108.516 136.198,108.75 135.781,108.75C134.635,108.75 133.138,108.672 131.289,108.516C129.44,108.359 127.227,108.203 124.648,108.047C122.07,107.891 119.167,107.813 115.938,107.813C111.927,107.813 108.464,107.891 105.547,108.047C102.63,108.203 100.326,108.359 98.633,108.516C96.94,108.672 95.885,108.75 95.469,108.75C90.781,108.75 87.5,107.318 85.625,104.453C83.75,101.589 82.813,97.266 82.813,91.484L82.813,73.75C82.813,68.438 82.214,64.271 81.016,61.25C79.818,58.229 77.852,56.094 75.117,54.844C72.383,53.594 68.724,52.969 64.141,52.969C62.526,52.969 61.719,53.75 61.719,55.313ZM61.719,14.844L61.719,43.203C61.719,46.172 61.836,48.008 62.07,48.711C62.305,49.414 62.995,49.766 64.141,49.766C64.661,49.714 65.156,49.674 65.625,49.648C66.094,49.622 66.875,49.609 67.969,49.609C70.833,49.609 73.503,48.854 75.977,47.344C78.451,45.833 80.313,43.802 81.563,41.25C82.5,39.479 83.138,37.253 83.477,34.57C83.815,31.888 83.984,28.724 83.984,25.078C83.984,16.693 82.5,11.029 79.531,8.086C76.563,5.143 71.745,3.672 65.078,3.672C64.036,3.672 63.281,4.049 62.813,4.805C62.344,5.56 62.044,6.654 61.914,8.086C61.784,9.518 61.719,11.771 61.719,14.844ZM40.781,7.344C39.531,7.344 38.503,7.799 37.695,8.711C36.888,9.622 36.484,10.807 36.484,12.266C36.484,13.984 37.057,15.755 38.203,17.578C38.568,18.151 38.88,18.594 39.141,18.906C39.401,19.219 39.635,19.583 39.844,20C40.052,20.417 40.156,20.833 40.156,21.25C40.156,21.875 39.935,23.503 39.492,26.133C39.049,28.763 38.828,30.651 38.828,31.797C38.828,35.547 39.479,37.422 40.781,37.422C42.135,37.422 42.813,35.495 42.813,31.641C42.813,30.391 42.682,28.464 42.422,25.859C42.161,23.255 42.031,21.51 42.031,20.625C42.031,20.26 42.513,19.115 43.477,17.188C44.44,15.26 44.922,13.672 44.922,12.422C44.922,10.859 44.466,9.622 43.555,8.711C42.643,7.799 41.719,7.344 40.781,7.344ZM97.734,7.969C97.005,7.969 96.315,8.138 95.664,8.477C95.013,8.815 94.688,9.245 94.688,9.766C94.688,13.203 95.911,15.807 98.359,17.578C100.339,18.932 101.523,19.935 101.914,20.586C102.305,21.237 102.5,23.047 102.5,26.016C102.5,28.672 102.083,31.38 101.25,34.141C100.417,36.901 100,38.568 100,39.141C100,39.818 100.417,40.156 101.25,40.156C102.344,40.156 103.203,38.932 103.828,36.484C104.453,34.036 104.766,30.547 104.766,26.016C104.766,24.974 104.609,23.724 104.297,22.266C103.984,20.807 103.828,20.052 103.828,20C103.828,19.792 103.88,19.479 103.984,19.063C104.089,18.646 104.141,18.359 104.141,18.203C104.141,16.172 104.036,14.688 103.828,13.75C103.464,12.448 102.617,11.159 101.289,9.883C99.961,8.607 98.776,7.969 97.734,7.969ZM40.625,97.109C41.51,97.109 42.344,96.563 43.125,95.469C43.906,94.375 44.297,93.047 44.297,91.484C44.297,90.182 44.049,88.802 43.555,87.344C43.06,85.885 42.552,84.635 42.031,83.594C41.51,82.552 41.25,81.979 41.25,81.875C41.25,80.26 41.406,77.865 41.719,74.688C42.031,71.51 42.188,69.375 42.188,68.281C42.188,65.313 41.406,63.828 39.844,63.828C38.646,63.828 38.047,64.505 38.047,65.859C38.047,68.516 38.255,71.641 38.672,75.234C39.089,78.828 39.297,80.729 39.297,80.938C39.297,81.198 38.737,82.63 37.617,85.234C36.497,87.839 35.938,89.87 35.938,91.328C35.938,93.047 36.432,94.44 37.422,95.508C38.411,96.576 39.479,97.109 40.625,97.109ZM28.125,25.703C28.125,27.109 28.997,28.685 30.742,30.43C32.487,32.174 33.906,33.177 35,33.438C36.302,33.438 36.953,32.578 36.953,30.859C36.953,28.255 36.406,26.003 35.313,24.102C34.219,22.201 32.943,21.25 31.484,21.25C30.495,21.25 29.688,21.667 29.063,22.5C28.438,23.333 28.125,24.401 28.125,25.703ZM44.766,31.172C44.766,31.693 44.909,32.253 45.195,32.852C45.482,33.451 45.885,33.75 46.406,33.75C47.083,33.75 48.503,32.526 50.664,30.078C52.826,27.63 53.906,25.651 53.906,24.141C53.906,23.307 53.62,22.591 53.047,21.992C52.474,21.393 51.693,21.094 50.703,21.094C49.089,21.094 47.695,22.161 46.523,24.297C45.352,26.432 44.766,28.724 44.766,31.172ZM98.203,34.531C99.036,34.531 99.453,33.464 99.453,31.328C99.453,29.766 99.193,28.242 98.672,26.758C98.151,25.273 97.344,24.089 96.25,23.203C95.521,22.526 94.583,22.188 93.438,22.188C91.406,22.188 90.391,23.203 90.391,25.234C90.391,26.849 91.354,28.802 93.281,31.094C95.208,33.385 96.849,34.531 98.203,34.531ZM116.641,25.859C116.641,23.724 115.521,22.656 113.281,22.656C111.771,22.656 110.482,23.802 109.414,26.094C108.346,28.385 107.813,30.495 107.813,32.422C107.813,33.828 108.125,34.531 108.75,34.531C110,34.531 111.628,33.607 113.633,31.758C115.638,29.909 116.641,27.943 116.641,25.859ZM26.563,78.984C26.563,81.589 27.786,82.891 30.234,82.891C32.109,82.891 33.62,81.641 34.766,79.141C35.911,76.641 36.484,74.089 36.484,71.484C36.484,70.911 36.38,70.339 36.172,69.766C35.964,69.193 35.677,68.906 35.313,68.906C34.427,68.906 32.747,70.273 30.273,73.008C27.799,75.742 26.563,77.734 26.563,78.984ZM49.766,82.031C51.016,82.031 51.992,81.693 52.695,81.016C53.398,80.339 53.75,79.609 53.75,78.828C53.75,77.943 53.242,76.706 52.227,75.117C51.211,73.529 49.987,72.096 48.555,70.82C47.122,69.544 45.911,68.906 44.922,68.906C44.505,68.906 44.297,69.297 44.297,70.078C44.297,78.047 46.12,82.031 49.766,82.031ZM40.313,42.5C40.052,42.5 39.831,42.578 39.648,42.734C39.466,42.891 39.245,43.151 38.984,43.516C38.724,43.88 38.568,44.089 38.516,44.141C36.953,46.536 35.26,48.177 33.438,49.063C32.031,49.844 31.328,50.443 31.328,50.859C31.328,51.432 32.083,52.135 33.594,52.969C34.948,53.75 36.302,55.065 37.656,56.914C39.01,58.763 39.948,59.688 40.469,59.688C41.094,59.688 41.771,59.141 42.5,58.047C43.333,56.849 44.141,55.938 44.922,55.313C45.703,54.688 46.732,53.971 48.008,53.164C49.284,52.357 49.922,51.745 49.922,51.328C49.922,50.964 48.932,50.169 46.953,48.945C44.974,47.721 43.438,46.328 42.344,44.766C41.354,43.255 40.677,42.5 40.313,42.5ZM104.297,97.109C105.13,97.109 105.977,96.576 106.836,95.508C107.695,94.44 108.125,93.099 108.125,91.484C108.125,89.766 107.591,87.682 106.523,85.234C105.456,82.786 104.922,81.667 104.922,81.875C104.922,80.26 105.078,77.865 105.391,74.688C105.703,71.51 105.859,69.375 105.859,68.281C105.859,65.313 105.078,63.828 103.516,63.828C102.422,63.828 101.875,64.505 101.875,65.859C101.875,67.943 102.057,70.807 102.422,74.453C102.786,78.099 102.969,80.26 102.969,80.938C102.969,81.198 102.409,82.63 101.289,85.234C100.169,87.839 99.609,89.87 99.609,91.328C99.609,93.047 100.104,94.44 101.094,95.508C102.083,96.576 103.151,97.109 104.297,97.109ZM90.234,78.984C90.234,81.589 91.458,82.891 93.906,82.891C95.729,82.891 97.201,81.68 98.32,79.258C99.44,76.836 100,74.245 100,71.484C100,69.766 99.661,68.906 98.984,68.906C98.099,68.906 96.419,70.273 93.945,73.008C91.471,75.742 90.234,77.734 90.234,78.984ZM113.438,82.031C114.688,82.031 115.664,81.693 116.367,81.016C117.07,80.339 117.422,79.609 117.422,78.828C117.422,77.943 116.914,76.706 115.898,75.117C114.883,73.529 113.659,72.096 112.227,70.82C110.794,69.544 109.583,68.906 108.594,68.906C108.177,68.906 107.969,69.297 107.969,70.078C107.969,78.047 109.792,82.031 113.438,82.031Z" style="fill:white;fill-rule:nonzero;"/>
        </g>
        <g transform="matrix(1,0,0,1,143.313,0.344)">
            <path id="b" d="M92.109,0.156C97.943,0.156 102.617,0.586 106.133,1.445C109.648,2.305 112.917,4.115 115.938,6.875C118.229,9.01 120.091,11.706 121.523,14.961C122.956,18.216 123.672,21.536 123.672,24.922C123.672,28.932 123.216,32.344 122.305,35.156C121.393,37.969 119.661,40.755 117.109,43.516C114.922,45.755 112.721,47.448 110.508,48.594C108.294,49.74 105.964,50.482 103.516,50.82C101.068,51.159 98.021,51.328 94.375,51.328C92.031,51.328 90.859,51.823 90.859,52.813C90.859,53.646 91.771,54.063 93.594,54.063C99.271,54.063 104.01,54.466 107.813,55.273C111.615,56.081 114.818,57.552 117.422,59.688C119.87,61.563 121.888,64.323 123.477,67.969C125.065,71.615 125.859,75.234 125.859,78.828C125.859,88.255 123.203,95.625 117.891,100.938C114.245,104.583 110.43,106.849 106.445,107.734C102.461,108.62 96.771,109.063 89.375,109.063C83.594,109.063 75.651,108.75 65.547,108.125C55.443,107.5 48.255,107.188 43.984,107.188C36.224,107.188 29.427,107.292 23.594,107.5C17.76,107.708 12.826,107.943 8.789,108.203C4.753,108.464 2.552,108.594 2.188,108.594C0.729,108.594 0,107.813 0,106.25C0,104.219 1.12,103.203 3.359,103.203C4.557,103.203 5.729,103.307 6.875,103.516C10.104,104.036 12.344,104.297 13.594,104.297C15.365,104.297 16.602,103.815 17.305,102.852C18.008,101.888 18.568,99.922 18.984,96.953C19.193,95.391 19.401,92.76 19.609,89.063C19.818,85.365 20.013,80.703 20.195,75.078C20.378,69.453 20.469,62.135 20.469,53.125C20.469,33.802 20.208,20.807 19.688,14.141C19.167,7.474 17.708,4.141 15.313,4.141C14.271,4.141 12.656,4.323 10.469,4.688C8.281,5.052 6.927,5.234 6.406,5.234C4.115,5.234 2.969,4.401 2.969,2.734C2.969,1.641 3.268,0.911 3.867,0.547C4.466,0.182 5.417,0 6.719,0C9.01,0.156 13.568,0.352 20.391,0.586C27.214,0.82 36.302,0.938 47.656,0.938C52.344,0.938 59.805,0.807 70.039,0.547C80.273,0.286 87.63,0.156 92.109,0.156ZM61.719,19.844L61.719,47.344C61.719,48.542 62.188,49.323 63.125,49.688C64.063,50.052 65.625,50.234 67.813,50.234C72.396,50.234 75.859,49.427 78.203,47.813C80.547,46.198 82.122,43.763 82.93,40.508C83.737,37.253 84.141,32.656 84.141,26.719C84.141,19.115 83.164,13.477 81.211,9.805C79.258,6.133 75.156,4.297 68.906,4.297C66.823,4.297 65.365,4.388 64.531,4.57C63.698,4.753 63.073,5.299 62.656,6.211C62.24,7.122 61.979,8.49 61.875,10.313C61.771,12.135 61.719,15.313 61.719,19.844ZM61.719,57.734L61.719,97.891C61.719,100.234 61.862,101.849 62.148,102.734C62.435,103.62 63.047,104.18 63.984,104.414C64.922,104.648 66.771,104.766 69.531,104.766C75.104,104.766 78.984,102.76 81.172,98.75C83.359,94.74 84.453,87.578 84.453,77.266C84.453,69.297 83.112,63.359 80.43,59.453C77.747,55.547 73.281,53.594 67.031,53.594C64.427,53.594 62.891,53.776 62.422,54.141C61.953,54.505 61.719,55.703 61.719,57.734ZM41.406,7.5C40.104,7.5 39.063,7.956 38.281,8.867C37.5,9.779 37.109,10.964 37.109,12.422C37.109,14.141 37.682,15.859 38.828,17.578C39.193,18.151 39.492,18.594 39.727,18.906C39.961,19.219 40.195,19.609 40.43,20.078C40.664,20.547 40.781,20.99 40.781,21.406C40.781,21.979 40.56,23.581 40.117,26.211C39.674,28.841 39.453,30.755 39.453,31.953C39.453,35.703 40.104,37.578 41.406,37.578C42.292,37.578 42.865,37.122 43.125,36.211C43.385,35.299 43.516,33.776 43.516,31.641C43.516,30.755 43.372,28.958 43.086,26.25C42.799,23.542 42.656,21.719 42.656,20.781C42.656,20.677 43.112,19.544 44.023,17.383C44.935,15.221 45.391,13.568 45.391,12.422C45.391,11.016 44.961,9.844 44.102,8.906C43.242,7.969 42.344,7.5 41.406,7.5ZM98.359,7.969C97.63,7.969 96.94,8.138 96.289,8.477C95.638,8.815 95.313,9.245 95.313,9.766C95.313,13.307 96.536,15.964 98.984,17.734C99.661,18.203 100.339,18.672 101.016,19.141C101.693,19.609 102.174,20.078 102.461,20.547C102.747,21.016 102.943,21.68 103.047,22.539C103.151,23.398 103.203,24.635 103.203,26.25C103.203,29.063 102.773,31.784 101.914,34.414C101.055,37.044 100.625,38.62 100.625,39.141C100.625,39.818 101.042,40.156 101.875,40.156C102.969,40.156 103.828,38.932 104.453,36.484C105.078,34.036 105.391,30.573 105.391,26.094C105.391,24.948 105.234,23.672 104.922,22.266C104.609,20.859 104.453,20.156 104.453,20.156C104.453,19.896 104.505,19.583 104.609,19.219C104.714,18.854 104.766,18.568 104.766,18.359C104.766,16.224 104.661,14.688 104.453,13.75C104.036,12.344 103.203,11.029 101.953,9.805C100.703,8.581 99.505,7.969 98.359,7.969ZM41.25,96.953C42.135,96.953 42.969,96.406 43.75,95.313C44.531,94.219 44.922,92.891 44.922,91.328C44.922,90.026 44.674,88.646 44.18,87.188C43.685,85.729 43.177,84.479 42.656,83.438C42.135,82.396 41.875,81.823 41.875,81.719C41.875,80.104 42.031,77.708 42.344,74.531C42.656,71.354 42.813,69.219 42.813,68.125C42.813,65.156 42.031,63.672 40.469,63.672C39.271,63.672 38.672,64.349 38.672,65.703C38.672,68.359 38.893,71.393 39.336,74.805C39.779,78.216 40,80.208 40,80.781C40,81.146 39.466,82.578 38.398,85.078C37.331,87.578 36.797,89.609 36.797,91.172C36.797,92.943 37.24,94.349 38.125,95.391C39.01,96.432 40.052,96.953 41.25,96.953ZM98.203,99.375C100.182,99.375 101.745,98.555 102.891,96.914C104.036,95.273 104.609,93.047 104.609,90.234C104.609,89.661 104.505,88.75 104.297,87.5C104.089,86.25 103.984,85.495 103.984,85.234C103.984,85.182 104.323,83.971 105,81.602C105.677,79.232 106.016,76.979 106.016,74.844C106.016,66.979 104.74,63.047 102.188,63.047C101.667,63.047 101.406,63.724 101.406,65.078C101.615,65.651 101.875,66.875 102.188,68.75C102.5,70.625 102.656,73.359 102.656,76.953C102.656,79.818 102.487,81.862 102.148,83.086C101.81,84.31 101.094,85.417 100,86.406C96.354,89.583 94.531,92.708 94.531,95.781C94.531,96.771 94.948,97.617 95.781,98.32C96.615,99.023 97.422,99.375 98.203,99.375ZM28.75,25.703C28.75,26.953 29.609,28.464 31.328,30.234C33.047,32.005 34.479,33.073 35.625,33.438C36.927,33.438 37.578,32.578 37.578,30.859C37.578,28.255 37.031,26.003 35.938,24.102C34.844,22.201 33.568,21.25 32.109,21.25C31.12,21.25 30.313,21.667 29.688,22.5C29.063,23.333 28.75,24.401 28.75,25.703ZM45.391,31.172C45.391,31.693 45.534,32.253 45.82,32.852C46.107,33.451 46.51,33.75 47.031,33.75C47.708,33.75 49.128,32.552 51.289,30.156C53.451,27.76 54.531,25.807 54.531,24.297C54.531,23.516 54.271,22.786 53.75,22.109C53.229,21.432 52.422,21.094 51.328,21.094C49.714,21.094 48.32,22.161 47.148,24.297C45.977,26.432 45.391,28.724 45.391,31.172ZM98.828,34.531C99.714,34.531 100.156,33.464 100.156,31.328C100.156,29.766 99.87,28.242 99.297,26.758C98.724,25.273 97.943,24.089 96.953,23.203C95.807,22.422 94.844,22.031 94.063,22.031C93.229,22.031 92.513,22.331 91.914,22.93C91.315,23.529 91.016,24.297 91.016,25.234C91.016,26.953 91.979,28.932 93.906,31.172C95.833,33.411 97.474,34.531 98.828,34.531ZM117.266,26.094C117.266,23.854 116.146,22.734 113.906,22.734C112.292,22.734 110.977,23.867 109.961,26.133C108.945,28.398 108.438,30.547 108.438,32.578C108.438,33.984 108.75,34.688 109.375,34.688C110.625,34.688 112.253,33.763 114.258,31.914C116.263,30.065 117.266,28.125 117.266,26.094ZM27.188,78.828C27.188,81.432 28.411,82.734 30.859,82.734C32.734,82.734 34.245,81.484 35.391,78.984C36.536,76.484 37.109,73.932 37.109,71.328C37.109,69.609 36.719,68.75 35.938,68.75C35.052,68.75 33.372,70.117 30.898,72.852C28.424,75.586 27.188,77.578 27.188,78.828ZM50.391,81.875C51.589,81.875 52.552,81.536 53.281,80.859C54.01,80.182 54.375,79.453 54.375,78.672C54.375,77.786 53.867,76.549 52.852,74.961C51.836,73.372 50.612,71.94 49.18,70.664C47.747,69.388 46.536,68.75 45.547,68.75C45.13,68.75 44.922,69.141 44.922,69.922C44.922,77.891 46.745,81.875 50.391,81.875ZM95.469,83.047C96.667,83.047 97.773,82.161 98.789,80.391C99.805,78.62 100.313,76.354 100.313,73.594C100.313,70.833 100.026,69.453 99.453,69.453C98.203,69.453 96.667,70.638 94.844,73.008C93.021,75.378 92.109,77.5 92.109,79.375C92.109,81.823 93.229,83.047 95.469,83.047ZM113.75,82.5C114.896,82.5 115.638,82.161 115.977,81.484C116.315,80.807 116.484,79.922 116.484,78.828C116.484,77.161 115.534,75.091 113.633,72.617C111.732,70.143 110.156,68.906 108.906,68.906C108.281,68.906 107.969,70.026 107.969,72.266C107.969,75.234 108.49,77.682 109.531,79.609C110.573,81.536 111.979,82.5 113.75,82.5ZM40.938,42.344C40.625,42.344 40.365,42.461 40.156,42.695C39.948,42.93 39.74,43.19 39.531,43.477C39.323,43.763 39.193,43.932 39.141,43.984C37.578,46.38 35.885,48.021 34.063,48.906C33.646,49.115 33.19,49.375 32.695,49.688C32.201,50 31.953,50.339 31.953,50.703C31.953,51.172 32.708,51.875 34.219,52.813C35.573,53.594 36.927,54.909 38.281,56.758C39.635,58.607 40.573,59.531 41.094,59.531C41.563,59.531 42.266,58.984 43.203,57.891C43.932,56.797 44.74,55.872 45.625,55.117C46.51,54.362 47.292,53.789 47.969,53.398C48.646,53.008 49.245,52.63 49.766,52.266C50.286,51.901 50.547,51.536 50.547,51.172C50.547,50.807 49.557,50.013 47.578,48.789C45.599,47.565 44.063,46.172 42.969,44.609C41.979,43.099 41.302,42.344 40.938,42.344Z" style="fill:white;fill-rule:nonzero;"/>
        </g>
    </g>
</svg>
