<?xml version="1.0" encoding="UTF-8" standalone="no"?>
<!DOCTYPE svg PUBLIC "-//W3C//DTD SVG 1.1//EN" "http://www.w3.org/Graphics/SVG/1.1/DTD/svg11.dtd">
<svg width="100%" height="100%" viewBox="0 0 1024 768" version="1.1" xmlns="http://www.w3.org/2000/svg" xmlns:xlink="http://www.w3.org/1999/xlink" xml:space="preserve" xmlns:serif="http://www.serif.com/" style="fill-rule:evenodd;clip-rule:evenodd;stroke-linejoin:round;stroke-miterlimit:2;">
    <g transform="matrix(1.33333,0,0,1.33333,0,0)">
        <g>
            <clipPath id="_clip1">
                <path d="M45.906,622.918L680.711,-11.887L1018.53,325.934L383.727,960.738L45.906,622.918Z"/>
            </clipPath>
            <g clip-path="url(#_clip1)">
                <g>
                    <clipPath id="_clip2">
                        <path d="M-12.977,681.801L680.695,-11.871L1081.62,389.059L387.953,1082.73L-12.977,681.801Z"/>
                    </clipPath>
                    <g clip-path="url(#_clip2)">
                        <path d="M545.129,124.441C532.773,136.797 531.254,149.527 529.914,160.762C528.699,170.938 527.734,178.977 519.473,187.238C511.363,195.348 504.262,195.879 495.277,196.547C485.344,197.285 472.992,198.203 460.492,210.703C447.988,223.207 447.07,235.563 446.332,245.488C445.664,254.477 445.133,261.578 437.02,269.691C428.91,277.801 421.809,278.332 412.82,279C402.891,279.738 390.539,280.656 378.035,293.16C365.535,305.66 364.613,318.016 363.879,327.945C363.207,336.934 362.676,344.035 354.566,352.145C346.453,360.258 339.352,360.785 330.363,361.457C320.438,362.191 308.078,363.113 295.578,375.613C283.074,388.117 282.156,400.473 281.422,410.402C280.75,419.391 280.223,426.488 272.109,434.602C263.996,442.715 256.898,443.242 247.91,443.914C237.98,444.648 225.625,445.566 213.121,458.07C200.621,470.57 199.703,482.926 198.965,492.855C198.297,501.844 197.77,508.941 189.656,517.055C181.398,525.313 173.359,526.277 163.18,527.492C151.949,528.836 139.215,530.355 126.863,542.707C103.973,565.297 119.719,586.227 101.988,604.051C82.406,622.875 58.496,613.754 35.988,635.281C7.664,661.254 10.266,698.074 37.688,724.457C62.789,749.156 81.34,733.488 102.285,754.02C112.215,763.949 115.438,774.973 118.84,786.637C126.703,818.215 144.855,839.621 177.918,845.078C188.664,847.422 197.957,849.453 207.523,858.824C227.797,880.145 215.355,902.453 239.934,926.711C252.902,939.68 267.145,943.836 279.707,947.504C291.375,950.91 302.395,954.129 312.324,964.059C321.918,973.652 323.313,982.09 324.922,991.863C326.73,1002.82 328.773,1015.24 341.887,1028.66C355.816,1042.93 372.57,1050.7 389.047,1050.54C404.27,1050.4 418.801,1043.42 431.063,1030.36C442.406,1018.28 445.609,1005.25 448.434,993.758C451.156,982.703 453.496,973.156 462.297,964.359C470.504,956.148 478.195,955.344 487.926,954.324C518.031,952.719 536.828,932.996 538.852,903.164C540.066,892.988 541.031,884.949 549.289,876.688C557.402,868.578 564.504,868.047 573.488,867.379C583.418,866.641 595.773,865.723 608.273,853.223C620.777,840.719 621.695,828.363 622.43,818.438C623.102,809.449 623.633,802.348 631.742,794.234C639.855,786.125 646.957,785.594 655.945,784.922C665.871,784.188 678.227,783.27 690.73,770.766C703.23,758.266 704.152,745.91 704.887,735.98C705.559,726.992 706.086,719.891 714.199,711.781C731.859,694.18 750.047,711.375 773.188,688.309C785.691,675.809 786.609,663.453 787.344,653.523C788.016,644.535 788.543,637.438 796.656,629.324C804.766,621.211 811.867,620.684 820.855,620.012C830.785,619.277 843.141,618.359 855.641,605.855C868.145,593.355 869.063,581 869.801,571.066C870.469,562.082 870.996,554.984 879.109,546.871C897.547,528.832 918.984,544.262 941.902,521.215C964.793,498.629 949.047,477.699 966.777,459.875C986.359,441.051 1010.27,450.172 1032.78,428.645C1061.1,402.672 1058.5,365.852 1031.08,339.469C1017.66,326.355 1005.24,324.309 994.281,322.504C984.508,320.895 976.07,319.5 966.48,309.906C945.074,287.527 953.434,261.328 929.133,237.516C904.832,212.918 882.582,225.395 861.242,205.102C840.969,183.781 853.41,161.473 828.828,137.215C804.992,112.902 778.828,121.281 756.438,99.867C735.902,78.891 751.578,60.371 726.875,35.266C700.484,7.879 663.684,5.207 637.703,33.57C626.359,45.645 623.156,58.676 620.328,70.168C617.609,81.223 615.266,90.77 606.469,99.566C588.652,117.289 567.684,101.563 545.129,124.441Z" style="fill-rule:nonzero;"/>
                    </g>
                </g>
            </g>
        </g>
    </g>
</svg>
