<?xml version="1.0" encoding="UTF-8" standalone="no"?>
<!DOCTYPE svg PUBLIC "-//W3C//DTD SVG 1.1//EN" "http://www.w3.org/Graphics/SVG/1.1/DTD/svg11.dtd">
<svg width="100%" height="100%" viewBox="0 0 1024 768" version="1.1" xmlns="http://www.w3.org/2000/svg" xmlns:xlink="http://www.w3.org/1999/xlink" xml:space="preserve" xmlns:serif="http://www.serif.com/" style="fill-rule:evenodd;clip-rule:evenodd;stroke-linejoin:round;stroke-miterlimit:2;">
    <g id="ink" transform="matrix(1.33333,0,0,1.33333,0,0)">
        <path d="M275.249,576L23.37,576C23.265,575.804 23.019,575.651 22.82,575.574C22.113,575.301 21.258,575.336 20.578,575.645C20.148,575.844 19.824,575.914 19.355,575.926C19.055,575.934 18.762,575.883 18.461,575.965C18.417,575.978 18.371,575.99 18.324,576L17.298,576C16.851,575.898 16.452,575.65 16.281,575.207C16.082,574.688 16.086,574.266 16.289,573.73C16.398,573.449 16.582,573.09 16.832,572.918C17.25,572.637 17.539,572.406 17.73,571.906C17.902,571.465 18.141,571.16 18.566,570.988C18.895,570.645 19.008,570.215 18.625,569.887C18.113,569.449 17.652,568.898 17.926,568.191C18.207,567.457 18.242,566.734 18.809,566.129C19.184,565.785 19.496,565.406 19.973,565.195C20.438,564.988 20.836,565.102 21.316,565.332C21.891,565.605 22.398,565.746 22.664,565.051C23.098,563.926 22.734,561.977 21.5,561.5C21.258,561.406 21.066,561.277 20.891,561.094C20.574,560.703 20.262,560.438 19.727,560.449C19.27,560.461 18.539,560.219 18.367,559.727C18.148,559.102 18.199,558.582 18.816,558.238C19.113,558.25 19.473,558.277 19.734,558.141C20.117,557.941 19.848,557.41 19.66,557.207C19.523,557.055 19.41,556.891 19.305,556.719C19.168,556.426 19.039,555.906 18.785,555.707C18.602,555.566 18.477,555.305 18.52,555.086C18.375,554.766 18.305,554.539 18.293,554.191C18.309,553.75 18.332,553.375 17.945,553.063C17.234,552.488 16.434,551.586 16.434,550.613C16.031,549.734 15.77,549.273 16.09,548.328C16.242,547.867 16.219,547.332 15.801,547.023L15.672,546.93C15.434,546.664 15.168,546.461 14.852,546.285C13.836,545.719 13.059,544.754 11.801,544.746C10.922,544.746 10.621,544.066 10.988,543.359C11.188,542.977 11.402,542.727 11.785,542.52C12.297,542.238 12.664,541.656 12.469,541.082C12.223,540.813 12.047,540.52 11.898,540.184C11.844,540.055 11.777,539.984 11.676,539.887C11.313,539.547 10.594,539.344 10.867,538.734C10.938,538.57 11.121,538.281 11.27,538.094C11.719,537.535 12.063,537.219 12.852,537.285C13.641,537.355 14.148,537.793 14.078,538.602C14.055,538.875 14.055,539.074 14.125,539.332C14.406,539.656 14.824,539.871 15.234,539.984C15.602,540.082 15.934,540.242 16.27,540.414C16.699,540.563 17.555,540.941 17.785,540.336C18.055,539.637 17.723,538.441 18.738,538.258C19.203,538.176 19.684,538.348 20.063,538.613C20.645,539.023 21.324,539.328 22,539.555C22.363,539.672 22.852,539.797 23.172,539.504C23.75,538.977 23.598,538.012 23.328,537.387C23.16,537 23.008,536.52 22.648,536.254C22.285,535.984 21.363,535.727 21.449,535.152C21.52,534.652 21.391,534 21.137,533.551C20.934,533.184 20.488,532.883 20.676,532.387C20.816,532.02 21.047,531.723 21.016,531.313C21.055,530.938 21.223,530.371 21.109,529.996C20.949,529.477 20.156,529.363 19.691,529.422C19.172,529.484 18.492,529.469 18.426,528.84C18.602,527.945 18.73,526.559 19.699,526.188C20.203,525.988 20.703,525.789 21.207,525.598C21.422,525.516 21.551,525.469 21.691,525.301C21.77,524.563 21.898,523.664 20.984,523.434C20.809,523.391 20.648,523.355 20.492,523.262C20.012,522.977 20.594,522.523 20.938,522.547C21.059,522.555 21.531,522.707 21.988,522.879C22.676,523.145 22.832,523.184 22.902,523.105C23.059,522.914 22.727,522.344 22.586,522.188C22.125,521.68 21.75,521.055 22.16,520.406C22.609,519.695 22.969,518.484 22.324,517.777C22.191,517.633 22.059,517.254 22.375,517.246C22.789,517.234 23.484,517.598 23.754,517.902C24.047,518.238 24.328,518.441 24.773,518.527C25.02,518.574 25.289,518.66 25.371,518.719C26.051,519.191 26.816,519.117 27.219,518.379C27.523,517.82 27.969,517.059 27.777,516.406C27.676,516.059 27.543,515.688 27.559,515.328C27.59,514.691 28.168,514.555 28.699,514.605C29.223,514.656 30.008,515.203 30.43,514.723C30.727,514.383 30.887,513.309 31.52,513.551C31.629,513.594 31.816,513.723 31.937,513.836C32.445,514.313 33.055,515.285 33.859,514.848C34.008,514.766 34.16,514.695 34.316,514.629C34.797,514.414 35.219,514.523 35.617,514.934C35.734,515.055 35.898,515.309 35.98,515.5C36.191,515.996 36.457,516.016 36.98,516.043C37.27,516.059 37.82,516.199 37.965,515.824C38.105,515.457 38.074,515.035 38.039,514.648C37.961,513.727 38.488,512.703 37.723,511.988C37.137,511.516 36.398,511.125 35.984,510.488C35.967,509.522 36.175,508.361 36.929,507.7C34.698,503.464 32.368,499.039 29.902,494.355C32.762,494.026 36.167,494.031 39.263,493.514C39.308,493.344 39.392,493.184 39.488,493.059C39.93,492.48 40.797,491.816 40.008,491.113C39.398,490.57 39.973,489.504 40.754,489.805L40.945,489.875C42.195,490.281 43.516,490.973 44.852,490.84C45.158,490.81 45.464,490.808 45.757,490.736C48.092,488.489 49.076,484.605 47.379,477.754C50.906,477.078 54.438,476.402 58.844,475.539C57.785,470.59 56.754,465.801 55.441,459.691C57.932,460.979 60.314,462.021 62.559,462.771C62.685,462.507 62.866,462.277 63.129,462.129C63.402,461.977 63.672,461.824 63.938,461.656C64.645,461.211 65.211,460.973 66.082,461.133C66.465,461.203 66.906,461.305 67.258,461.113C67.801,460.82 68.266,460.605 68.449,459.965C68.625,459.348 68.848,458.473 69.605,458.398C69.93,458.367 70.199,458.25 70.477,458.09C70.945,457.828 71.547,457.613 71.91,457.227C72.27,456.844 72.398,456.082 71.926,455.734C71.277,455.254 70.563,455.422 69.91,455.785C69.34,456.105 68.781,455.961 68.188,455.73C67.379,455.422 67.008,455.117 66.762,454.281C66.688,454.027 66.691,453.645 66.848,453.422C67.133,453.02 66.664,452.68 66.332,452.551C65.625,452.281 64.77,452.316 64.09,452.625C63.66,452.82 63.336,452.891 62.871,452.902C62.566,452.91 62.273,452.863 61.977,452.941C61.23,453.16 60.113,453.016 59.793,452.184C59.594,451.664 59.598,451.242 59.801,450.711C59.91,450.426 60.094,450.066 60.344,449.898C60.762,449.617 61.051,449.387 61.242,448.887C61.414,448.441 61.652,448.141 62.078,447.965C62.406,447.621 62.52,447.195 62.137,446.867C61.629,446.43 61.168,445.879 61.437,445.172C61.723,444.434 61.758,443.715 62.32,443.109C62.695,442.762 63.012,442.387 63.484,442.176C63.953,441.969 64.348,442.082 64.828,442.309C65.402,442.582 65.91,442.723 66.176,442.027C66.609,440.902 66.246,438.953 65.012,438.48C64.77,438.387 64.578,438.258 64.402,438.07C64.086,437.684 63.773,437.414 63.242,437.43C62.781,437.441 62.051,437.195 61.879,436.707C61.66,436.082 61.711,435.563 62.328,435.215C62.625,435.227 62.984,435.254 63.246,435.117C63.629,434.918 63.359,434.387 63.172,434.184C63.035,434.035 62.922,433.871 62.816,433.695C62.68,433.406 62.551,432.887 62.297,432.688C62.117,432.547 61.988,432.281 62.031,432.062C61.891,431.742 61.816,431.52 61.805,431.172C61.82,430.727 61.848,430.355 61.461,430.043C60.746,429.469 59.949,428.563 59.949,427.59C59.543,426.711 59.281,426.254 59.602,425.305C59.758,424.844 59.734,424.313 59.313,424L59.184,423.906C58.945,423.645 58.68,423.437 58.363,423.262C57.348,422.695 56.57,421.73 55.313,421.727C54.438,421.723 54.137,421.047 54.5,420.34C54.699,419.953 54.914,419.703 55.297,419.496C55.809,419.215 56.176,418.637 55.98,418.059C55.734,417.789 55.559,417.496 55.41,417.164C55.355,417.035 55.293,416.961 55.188,416.867C54.824,416.527 54.105,416.32 54.379,415.711C54.453,415.547 54.633,415.262 54.785,415.074C55.23,414.512 55.578,414.199 56.363,414.266C57.152,414.332 57.66,414.773 57.59,415.582C57.566,415.855 57.566,416.051 57.637,416.312C57.922,416.633 58.336,416.852 58.746,416.961C59.113,417.062 59.449,417.223 59.781,417.395C60.211,417.543 61.066,417.918 61.301,417.316C61.566,416.613 61.234,415.422 62.254,415.238C62.715,415.152 63.195,415.324 63.574,415.59C64.16,416 64.836,416.309 65.512,416.531C65.879,416.652 66.363,416.777 66.684,416.484C67.262,415.953 67.109,414.988 66.84,414.367C66.672,413.977 66.52,413.496 66.164,413.23C65.797,412.961 64.875,412.707 64.961,412.129C65.031,411.629 64.902,410.977 64.652,410.527C64.445,410.16 64,409.859 64.191,409.363C64.332,409 64.559,408.699 64.527,408.293C64.566,407.918 64.738,407.348 64.621,406.977C64.461,406.453 63.668,406.34 63.203,406.398C62.688,406.465 62.008,406.449 61.938,405.816C62.113,404.922 62.242,403.535 63.211,403.164C63.715,402.965 64.215,402.766 64.723,402.574C64.934,402.492 65.063,402.449 65.203,402.281C65.285,401.539 65.41,400.641 64.5,400.414C64.32,400.367 64.16,400.336 64.004,400.242C63.523,399.957 64.105,399.504 64.453,399.527C64.57,399.535 65.043,399.684 65.5,399.859C66.188,400.125 66.348,400.16 66.414,400.082C66.57,399.895 66.242,399.32 66.098,399.164C65.637,398.66 65.262,398.031 65.672,397.383C66.121,396.672 66.48,395.461 65.84,394.758C65.703,394.609 65.57,394.234 65.887,394.223C66.301,394.215 67,394.574 67.266,394.883C67.559,395.215 67.84,395.418 68.285,395.504C68.531,395.555 68.801,395.641 68.883,395.699C69.563,396.172 70.328,396.098 70.73,395.359C71.035,394.801 71.48,394.035 71.289,393.383C71.188,393.035 71.055,392.668 71.07,392.309C71.102,391.672 71.68,391.535 72.211,391.586C72.734,391.633 73.52,392.184 73.941,391.699C74.238,391.359 74.398,390.285 75.031,390.531C75.141,390.57 75.328,390.699 75.449,390.816C75.957,391.293 76.566,392.262 77.371,391.824C77.523,391.746 77.676,391.676 77.828,391.605C78.309,391.391 78.734,391.5 79.133,391.914C79.246,392.035 79.41,392.289 79.492,392.48C79.703,392.977 79.969,392.996 80.492,393.023C80.781,393.035 81.332,393.176 81.477,392.801C81.617,392.438 81.586,392.012 81.555,391.629C81.473,390.707 82.004,389.68 81.234,388.969C80.652,388.496 79.91,388.102 79.496,387.465C79.477,386.348 79.758,384.969 80.836,384.41C81.66,384.402 82.137,384.762 82.09,385.637C82.07,385.988 82.027,386.348 82.145,386.687C82.367,387.344 83.355,387.461 83.93,387.434C84.215,387.27 84.504,387.078 84.852,387.078C85.348,387.07 85.961,387.449 85.957,387.977C85.863,388.766 85.676,389.438 86.441,389.906C86.996,390.246 87.539,390.414 88.125,390.02C88.723,389.621 88.691,389.008 88.191,388.598C87.594,388.105 86.355,387.926 86.371,386.984C86.391,385.813 87.766,385.195 88.809,385.438C89.02,385.488 89.215,385.434 89.414,385.375C89.707,385.281 90.398,385.184 90.52,384.867C90.617,384.617 90.402,384.203 90.234,384.02C89.844,383.59 89.645,383.004 89.59,382.434C89.508,381.598 89.301,380.547 88.594,380.027C87.891,379.445 87.656,378.789 87.777,377.895C87.871,377.168 88.262,376.398 88.637,375.777C89,375.184 89.566,374.016 88.785,373.465C88.281,373.109 87.516,373.535 87.137,373.918C86.926,374.129 86.609,374.418 86.574,374.727C86.551,374.91 86.473,375.352 86.227,375.32C85.941,375.285 85.922,374.969 85.922,374.738C85.922,374.027 86.133,372.859 85.152,372.785C84.555,372.738 83.418,372.957 83.32,372.094C83.293,371.867 83.262,371.461 83.063,371.34C82.555,371.035 82.73,370.395 83,370.035C83.441,369.457 84.313,368.797 83.52,368.094C82.91,367.551 83.484,366.48 84.27,366.781L84.457,366.855C85.711,367.258 87.027,367.949 88.367,367.816C88.77,367.777 89.18,367.785 89.551,367.621C90.523,367.188 92.137,367.711 92.602,368.66C92.777,369.012 92.945,369.363 93.117,369.719C93.52,370.164 93.895,370.48 94.461,370.719C95.176,371.02 95.527,371.66 95.547,372.43C95.555,372.816 95.547,373.223 95.668,373.594C95.727,373.762 95.773,373.934 95.816,374.105C95.871,374.313 95.926,374.523 95.977,374.734C96.035,374.945 96.09,375.156 96.141,375.371C96.266,375.777 96.625,376.539 97.148,376.383C97.23,376.355 97.313,376.336 97.395,376.301C97.434,376.285 97.609,376.262 97.785,376.246C97.996,376.227 98.199,376.191 98.406,376.137C98.633,375.926 98.824,375.82 99.125,375.734C99.684,375.578 100.207,375.422 100.645,375.02C100.828,374.848 100.992,374.691 101.211,374.566C101.383,374.465 101.531,374.344 101.68,374.211C101.945,373.969 102.223,373.789 102.555,373.645C103.25,373.336 103.684,372.316 104.57,372.809C104.832,372.953 105.32,373.25 105.59,373.008C105.727,372.883 105.879,372.781 106.035,372.688C106.43,372.414 107.051,372.215 107.078,371.676C107.031,371.148 107.285,369.914 108.074,370.176C108.492,370.313 108.996,370.285 109.426,370.242C109.898,370.199 110.355,370.18 110.828,370.227C110.938,370.164 111.047,370.098 111.152,370.035C111.207,370.004 111.363,369.73 111.5,369.43C111.715,368.957 111.938,368.645 112.371,368.379C113.02,368.09 113.695,367.898 114.164,367.34C114.492,367.137 115,366.992 115.105,366.59C115.141,366.445 115.148,366.078 115.121,365.773C115.094,365.48 115.023,364.973 115.328,364.773C115.691,364.539 115.965,365.066 115.953,365.344C115.922,366.086 116.793,366.395 117.43,366.164C117.59,366.105 117.75,366.047 117.91,365.984C118.465,366.082 119.195,366.285 119.605,365.809C120.062,365.277 120.422,364.078 121.285,364.148C121.875,364.199 122.75,364.684 123.289,364.293C123.656,364.023 123.988,363.246 124.086,362.809C124.137,362.59 124.16,362.375 124.176,362.148C124.215,361.559 124.441,361.25 125.059,361.488C125.336,361.594 125.656,361.684 125.891,361.438L126.039,361.281C126.277,361.082 126.516,360.879 126.727,360.648C126.898,360.461 127.07,360.313 127.281,360.164C127.77,359.813 128.375,359.367 128.523,358.758C128.715,357.988 129.051,357.266 129.473,356.598C129.77,355.957 129.961,355.359 130.574,354.984C130.973,354.707 131.742,354.363 131.762,353.836C131.77,353.551 131.684,353.066 131.859,352.832C132.027,352.613 132.164,352.281 132.156,352.004C132.145,351.512 131.484,351.449 131.137,351.496C130.695,351.559 130.27,351.477 129.836,351.391C129.027,351.227 128.426,351.355 127.809,351.941C127.402,352.328 127.164,352.711 126.551,352.691C125.957,352.672 125.266,352.035 124.883,351.633C124.656,351.395 124.398,351.102 124.41,350.754C124.426,350.273 124.996,350.223 125.363,350.242C125.926,350.27 127.168,349.969 126.887,349.234C126.727,348.824 126.609,348.375 126.301,348.047C125.828,347.551 125.148,347.5 124.555,347.742C123.961,347.984 123.098,347.746 122.898,347.078C122.746,346.574 123.105,346.141 123.547,345.945C124.27,345.621 125.449,345.219 126.141,345.789C126.297,345.918 126.473,346 126.66,346.07C127.125,346.063 127.371,345.961 127.148,345.441C127.051,345.215 127.008,344.945 127.035,344.75C127.16,343.91 126.906,342.758 127.578,342.074C127.82,341.828 128.629,341.66 128.398,341.219C128.285,341 128.156,340.793 128.023,340.586C127.855,340.32 127.898,339.945 127.945,339.645C127.977,339.43 128.004,339.219 128.02,339C128.078,338.297 128.68,338.344 129.164,338.641C129.59,338.906 130.145,339.211 130.645,339.012C131.109,338.828 131.43,338.461 130.938,338.102C130.512,337.789 130.293,337.578 130.512,337.008C130.609,336.746 130.797,336.527 131.359,336.012C131.934,335.48 132.461,335.184 133.188,334.941C133.816,334.66 134.395,334.449 134.629,333.75C134.703,333.32 134.723,332.789 134.945,332.41C135.188,332.004 135.23,331.563 134.969,331.176C134.531,330.801 134.055,330.328 133.793,329.816C133.652,329.551 133.523,329.324 133.293,329.129C133.027,328.91 132.77,328.688 132.512,328.461L132.422,328.379C132.316,328.148 132.215,327.91 132.02,327.738C131.617,327.395 131.328,327.031 131.082,326.566C130.82,326.102 130.371,325.547 130.766,325.035C130.852,324.688 130.938,324.348 131.066,324.012C131.508,323.383 132.25,323.063 133,323.348C133.945,323.711 134.906,324.141 135.926,324.219C136.309,324.203 136.691,324.188 137.074,324.184L137.559,324.195C138.336,324.402 138.91,324.578 139.672,324.227C140.684,323.762 141.938,323.824 142.973,324.219C143.172,324.234 143.441,324.297 143.625,324.191C143.738,324.125 143.766,324.109 143.898,324.051L144.047,323.984C144.277,323.754 144.449,323.551 144.754,323.434C145.184,322.93 145.828,323.285 146.137,323.715C146.488,324.211 146.949,325.008 147.512,325.227C147.859,325.266 148.199,325.313 148.543,325.367C148.816,325.316 149.152,325.207 149.422,325.301C149.762,325.418 150.172,325.43 150.527,325.406C150.852,325.387 151.184,325.484 151.484,325.602C151.949,325.777 152.313,325.852 152.805,325.691C153.402,325.496 153.82,325.797 154.023,326.348C154.398,326.824 154.871,327.23 155.445,327.449C156.141,327.719 156.828,328.031 157.473,328.395C157.777,328.563 158.059,328.723 158.402,328.605C158.609,328.535 158.73,328.234 158.633,328.043C158.328,327.438 158.117,326.992 158.809,326.633C158.93,326.594 159.055,326.551 159.176,326.508C159.179,326.508 159.182,326.507 159.185,326.507C159.079,325.12 158.821,323.562 158.387,321.809C161.059,321.297 163.732,320.788 166.783,320.196C166.93,319.961 167.065,319.771 167.27,319.578C167.633,319.25 167.875,318.855 168.047,318.406C168.188,317.754 168.297,317.066 168.848,316.633C168.968,316.617 169.089,316.575 169.192,316.51C168.351,312.593 167.489,308.583 166.453,303.75C168.913,305.022 171.267,306.054 173.488,306.803C173.199,306.643 172.802,306.465 172.684,306.168C172.453,305.59 172.707,304.801 173.078,304.348C173.207,304.191 173.379,303.891 173.461,303.672C173.824,302.73 174.91,301.652 176,301.637C176.746,301.629 177.484,301.43 178.133,301.055C178.57,300.805 179.098,300.863 179.578,300.957C179.651,300.972 179.723,300.984 179.795,300.993C180.028,300.529 180.246,300.078 180.246,299.555C180.246,298.691 180.184,297.816 180.965,297.27C181.273,297.051 181.574,296.906 181.848,296.633C182.297,296.184 183.258,295.996 183.258,295.215C183.258,294.602 183.02,293.789 182.637,293.285C182.488,293.094 182.184,292.641 181.945,292.602C181.906,292.594 181.805,292.523 181.652,292.402C181.527,292.297 181.18,292.168 180.887,292.113C180.293,292.008 179.844,291.922 179.395,291.523C179.277,291.254 179.164,291.035 178.977,290.805C178.652,290.402 178.594,289.934 178.691,289.418C178.82,288.742 178.695,288.266 178.375,287.652C177.996,286.934 177.926,286.027 177.027,285.906C176.48,286.086 175.727,286.363 175.207,285.965C174.344,285.305 173.816,284.715 174.008,283.57C174.129,282.848 174.109,282.207 173.785,281.543C173.465,280.883 173.273,280.645 172.516,280.559C171.656,280.465 171.301,280.262 171.301,279.414C171.301,278.883 171.07,278.52 170.699,278.16C170.27,277.738 170.059,277.227 170.32,276.68C170.496,276.234 170.766,275.734 170.68,275.246C170.52,274.352 170.234,273.609 169.586,272.941C168.988,272.324 168.023,271.293 168.113,270.355C168.164,269.789 168.617,269.41 169.121,269.23C169.246,269.188 169.309,269.145 169.504,268.98C170.223,268.371 171.672,268.473 172.391,269.051C172.863,269.43 173.402,269.828 174.051,269.73C175.098,269.57 176.199,269.07 177.262,269.383C177.695,269.508 177.898,269.445 178,268.984C178.059,268.719 178.211,268.449 178.406,268.262C178.598,268.078 178.719,267.965 178.797,267.723C179.203,267.316 179.469,267.008 179.469,266.398C179.188,265.801 178.863,265.242 178.25,264.938C177.754,264.688 177.398,264.469 177.656,263.895C177.957,263.223 178.109,262.602 177.805,261.891C177.543,261.371 177.285,260.848 177.035,260.32C176.613,259.836 176.164,259.383 176.309,258.656C176.414,258.121 176.809,258.25 177.195,258.441C177.578,258.633 177.945,258.848 178.301,259.086C179,259.484 179.652,259.727 180.008,260.504C180.289,261.113 180.82,261.598 181.41,261.902C181.742,262.047 182.078,262.188 182.383,262.387C182.867,262.707 183.445,262.777 184.027,262.777C184.348,262.777 185.066,262.707 185.625,262.625C186.543,262.488 186.688,262.488 187.133,262.625C187.648,262.785 188.035,262.844 188.305,262.316C188.414,262.094 188.555,261.746 188.613,261.543C188.738,261.105 188.844,260.25 188.32,260.074C188.137,260.012 188,259.965 187.852,259.832C187.445,259.473 187.996,259.117 188.305,259.039C189.035,258.848 189.582,258.344 189.383,257.539C189.129,256.535 189.195,255.41 188.512,254.566C188.215,254.203 188.051,253.754 187.918,253.305C187.73,252.664 187.523,252.027 187.242,251.422C186.992,250.664 186.969,250.125 187.453,249.461C188.148,249.113 188.871,248.824 189.184,248.059C189.258,247.867 189.344,247.734 189.473,247.574C189.633,247.375 189.754,247.164 189.867,246.941C190.309,246.059 190.906,245.332 191.98,245.43C192.336,245.461 193.465,245.699 193.465,245.082C193.465,244.426 192.594,243.855 192,244.02C191.125,244.266 190.129,244.035 189.422,243.449C189.07,243.156 187.824,242.461 188.668,241.918C189.109,241.633 189.777,241.598 189.633,240.898C189.59,240.676 189.535,240.457 189.48,240.238C189.277,239.461 189.336,238.613 190.316,238.531C190.918,238.484 191.324,238.379 191.801,238.016C192.312,237.625 192.594,236.867 192.434,236.223C192.336,235.828 192.379,235.105 192.652,234.781C192.973,234.398 193.445,234.434 193.883,234.555C194.359,234.684 194.691,234.656 195.125,234.496C195.344,234.277 195.496,234.039 195.809,234.012C196.086,233.734 196.371,233.5 196.734,233.336C197.406,233.031 198.164,232.035 198.914,232.578C199.199,233.078 199.484,233.969 200.234,233.645C200.434,233.559 200.543,233.184 200.316,233.07C200.047,232.934 199.621,232.629 199.48,232.355C199.082,231.578 199.098,230.117 200.035,229.738L200.258,229.648C200.852,229.512 201.457,229.391 202.008,229.117C203.355,228.441 204.77,229.707 205.605,230.707C205.816,231.309 206.316,231.918 206.914,232.172C207.352,232.352 207.758,232.277 208.133,231.992C208.879,231.43 209.273,231.016 209.359,229.988C209.441,229.047 210.023,227.688 209.285,226.859C209,226.539 208.645,226.383 208.238,226.246C207.285,225.922 207.02,224.937 207.648,224.16C207.863,223.898 208.004,223.605 208.137,223.297C208.355,222.773 208.695,221.461 208.156,220.988C207.855,220.73 207.586,220.574 207.41,220.223C207.063,219.547 206.879,218.777 207.121,218.051C207.219,217.762 207.367,217.387 207.16,217.117C206.809,217.039 206.422,216.977 206.141,216.734C205.926,216.551 205.727,216.355 205.527,216.156C205.113,216 204.863,215.801 204.699,215.371C204.625,215.176 204.555,214.984 204.496,214.785C204.391,214.422 203.688,213.449 204.441,213.262C204.547,213.234 204.703,213.266 204.789,213.332L204.949,213.449C205.273,214.113 205.617,214.867 206.469,214.5C206.785,214.363 207.52,213.922 207.559,213.523C207.605,213.031 208.027,212.605 208.52,212.746C208.98,212.965 209.395,213.164 209.68,213.605C209.961,214.039 209.723,214.711 209.547,215.137C209.43,215.414 208.836,216.18 209.215,216.477C209.27,216.52 209.527,216.504 209.793,216.445C210.523,216.285 211.379,216.219 211.984,216.723C212.289,216.977 212.594,217.227 212.91,217.461C213.762,218.094 214.297,218.66 214.504,219.762C214.598,220.246 214.672,220.812 215.059,221.145C215.652,221.652 216.121,222.105 216.961,222.027C217.77,221.957 218.902,221.824 219.336,222.687C219.52,223.059 219.785,223.32 220.098,223.578C220.621,224.012 221.145,224.625 221.77,224.879C222.387,225.133 223.344,224.937 223.543,224.219C223.816,223.23 223.293,222.465 222.563,221.859C221.93,221.332 221.848,220.605 221.848,219.801C221.848,218.703 222.039,218.121 222.914,217.453C223.18,217.25 223.633,217.082 223.969,217.164C224.57,217.316 224.762,216.609 224.762,216.156C224.762,215.195 224.332,214.203 223.656,213.539C223.23,213.117 223,212.77 222.773,212.223C222.629,211.867 222.551,211.496 222.32,211.184C221.723,210.402 221.391,209.012 222.227,208.258C222.75,207.785 223.25,207.598 223.973,207.598C224.355,207.598 224.867,207.652 225.18,207.871C225.703,208.238 226.105,208.473 226.785,208.473C227.387,208.473 227.855,208.621 228.25,209.043C228.805,209.273 229.363,209.215 229.578,208.613C229.863,207.809 230.309,207.016 231.266,207.016C232.266,207.016 233.133,206.73 234.102,207.121C234.684,207.406 235.27,207.609 235.734,208.074C236.195,208.531 236.242,209.051 236.187,209.723C236.125,210.531 236.187,211.191 237.133,211.191C238.66,211.191 240.801,209.879 240.801,208.203C240.801,207.871 240.867,207.59 241.004,207.297C241.32,206.746 241.496,206.254 241.238,205.629C241.016,205.09 240.973,204.117 241.473,203.691C242.113,203.148 242.75,202.969 243.438,203.547C243.559,203.898 243.691,204.34 243.969,204.586C244.379,204.949 244.887,204.387 245.043,204.074C245.156,203.844 245.297,203.633 245.457,203.43C245.738,203.137 246.293,202.746 246.414,202.355C246.5,202.078 246.754,201.809 247.031,201.758C247.344,201.445 247.578,201.258 247.984,201.09C248.512,200.906 248.965,200.762 249.16,200.164C249.516,199.062 250.223,197.703 251.371,197.262C252.227,196.387 252.652,195.867 253.918,195.816C254.531,195.789 255.152,195.52 255.328,194.883L255.379,194.688C255.582,194.281 255.703,193.875 255.77,193.426C255.977,191.965 256.766,190.605 256.199,189.113C255.805,188.078 256.469,187.414 257.473,187.523C258.016,187.586 258.41,187.727 258.828,188.082C259.391,188.563 260.242,188.73 260.836,188.238C261.043,187.824 261.313,187.484 261.641,187.156C261.766,187.031 261.82,186.926 261.887,186.758C262.125,186.176 262.043,185.23 262.887,185.277C263.113,185.289 263.535,185.375 263.824,185.465C264.691,185.738 265.219,186.008 265.496,186.969C265.777,187.934 265.484,188.73 264.5,189.016C264.164,189.113 263.934,189.203 263.656,189.402C263.402,189.887 263.336,190.477 263.391,191.012C263.441,191.492 263.402,191.957 263.352,192.434C263.371,193.008 263.313,194.191 264.133,194.191C265.082,194.191 266.344,193.254 267.023,194.375C267.332,194.883 267.348,195.531 267.207,196.098C266.988,196.977 266.93,197.918 266.973,198.82C266.996,199.305 267.07,199.938 267.563,200.184C268.453,200.625 269.523,200.008 270.137,199.406C270.52,199.031 271.02,198.633 271.172,198.086C271.324,197.535 271.207,196.328 271.926,196.164C272.551,196.023 273.262,195.574 273.68,195.07C274.02,194.664 274.172,193.996 274.844,193.996C275.344,193.996 275.797,194.133 276.266,193.91C276.727,193.785 277.477,193.73 277.867,193.422C278.41,192.996 278.184,192.008 277.902,191.484C277.59,190.898 277.301,190.09 278.016,189.723C279.152,189.523 280.852,189.043 281.73,190.023C282.195,190.527 282.656,191.031 283.113,191.539C283.305,191.754 283.418,191.887 283.68,191.977C284.594,191.734 285.715,191.477 285.566,190.293C285.539,190.066 285.508,189.859 285.547,189.633C285.664,188.934 286.465,189.414 286.594,189.836C286.641,189.98 286.68,190.609 286.68,191.23C286.68,192.16 286.703,192.367 286.828,192.41C287.125,192.512 287.648,191.859 287.77,191.617C288.16,190.844 288.727,190.113 289.68,190.305C289.811,190.331 289.952,190.352 290.098,190.367C287.714,185.84 285.219,181.1 282.566,176.063C291.07,175.082 304.402,177.063 300.043,159.461C303.57,158.785 307.102,158.109 311.512,157.246L308.105,141.398C323.66,149.438 334.961,147.926 335.215,125.457C338.637,127.838 341.843,130.39 344.944,132.886C344.867,132.435 344.858,131.971 344.957,131.578C345.109,130.961 345.324,130.594 345.832,130.188C346.191,129.902 346.469,129.563 346.746,129.195C347.184,128.617 347.984,128.496 348.668,128.406C349.293,128.328 350.367,128.43 350.785,128.898C351.027,129.172 351.242,129.461 351.457,129.762C351.734,130.145 352.313,131.152 352.781,130.473C353.02,130.035 353.242,129.496 353.738,129.289C354.25,129.07 354.855,129.102 355.188,128.613C355.625,127.969 354.898,127.242 354.344,127.055C353.813,126.68 353.547,126.062 353.613,125.406C353.645,125.125 353.664,124.84 353.672,124.555C353.715,123.992 353.617,123.266 353.859,122.746C354.027,122.379 354.57,122.746 354.75,122.898C355.078,123.184 355.441,123.449 355.863,123.184C356.234,122.949 356.43,122.695 356.527,122.266C356.676,121.602 357.273,121.078 356.828,120.375C356.305,120.223 355.52,120.383 355.004,120.551C354.516,120.711 354.301,120.965 354.168,121.461C354.09,121.773 354.035,122.367 353.633,122.43C353.254,122.488 352.742,122.445 352.441,122.195C351.84,121.691 351.984,120.891 352.227,120.25C352.52,119.484 352.547,118.742 353.289,118.277C353.648,118.047 353.785,117.797 353.824,117.391C353.891,116.656 354.75,116.961 354.91,117.445C354.988,117.961 354.891,118.445 355.18,118.91C355.535,119.051 355.941,118.926 356.281,118.789C356.523,118.691 357.16,118.582 357.25,118.969C357.457,119.859 358.391,119.152 358.691,118.711C358.938,118.348 358.586,118.277 358.289,118.348C358.035,118.41 357.781,118.531 357.672,118.211C357.621,118.059 357.633,118.004 357.691,117.859C357.938,117.453 358,117.191 357.836,116.711L357.672,116.23C357.582,115.871 357.539,115.219 357.266,114.957C357.168,114.863 357.078,114.883 356.742,115.055C356.449,115.207 356.156,115.285 355.828,115.324C355.297,115.562 354.867,115.801 354.473,116.246C354.164,116.676 353.883,116.992 353.344,116.789C352.918,116.633 352.391,115.988 352.969,115.664C353.313,115.473 354.012,115.492 354.066,115.008C354.113,114.617 354.219,114.418 353.918,114.09C353.48,113.609 352.996,113.379 352.906,112.672C352.863,112.355 352.844,112.063 353.031,111.805C353.457,111.211 353.668,110.766 353.359,110.082C353.184,109.691 353.297,109.082 353.512,108.727C353.758,108.32 354.188,108.363 354.605,108.441C355.219,108.563 355.824,108.633 356.145,109.246C356.383,109.699 356.383,110.152 356.32,110.641C356.18,111.539 356.195,112.387 356.875,113.113C357.227,113.496 357.82,113.66 358.039,113.02C358.102,112.828 358.191,112.66 358.293,112.488L358.504,112.141C358.688,111.445 358.801,110.547 359.531,110.191C360.195,109.871 360.855,110.371 360.941,111.074C360.984,111.43 361.191,111.98 360.68,112.121C360.203,112.254 359.633,112.734 359.895,113.246C360.086,113.617 360.254,114.082 360.203,114.508C360.188,114.648 360.141,115.332 360.336,115.273C360.465,115.012 360.625,114.801 360.84,114.605C361.195,114.277 361.551,113.898 361.43,113.371C361.352,113.043 361.422,112.801 361.563,112.516C361.969,112.207 362.238,111.734 361.813,111.328C361.488,111.02 361.258,110.633 361.203,110.191C361.18,109.758 361.223,109.098 360.609,109.156C360.25,109.191 359.723,109.184 359.598,108.738C359.496,108.379 359.25,107.875 358.984,107.617C358.719,107.363 358.813,106.914 358.891,106.605C359.059,105.934 359.227,105.262 359.332,104.578C359.488,103.586 360.016,102.574 361.211,102.902C361.426,102.961 361.641,103.016 361.859,103.066C362.141,103.258 362.387,103.414 362.734,103.43C363.023,103.453 363.34,103.422 363.574,103.594C363.98,103.895 363.723,104.359 363.449,104.664C362.988,105.172 362.809,105.73 362.754,106.422C362.715,106.895 362.535,107.43 362.805,107.855C363.066,108.273 363.473,108.316 363.887,108.059C364.18,107.875 364.395,107.672 364.633,107.422C364.863,107.098 365.105,106.789 365.375,106.496C365.594,106.258 365.773,106.02 365.887,105.715C366.02,105.188 366.41,104.398 365.992,103.926C365.773,103.684 365.551,103.555 365.246,103.465C364.762,103.328 364.359,103.004 364.668,102.484C365.086,102.152 365.656,101.754 365.715,101.176C365.773,100.559 365.418,99.816 364.82,99.594C364.141,99.34 363.301,99.441 363.109,98.578C363,98.332 362.902,98.086 362.855,97.82C362.801,97.516 362.695,97.246 362.582,96.957C362.344,96.355 361.688,94.824 362.887,94.852C363.363,94.863 363.207,94.359 362.992,94.125C362.461,93.543 362.09,92.52 362.234,91.742C362.367,91.027 362.918,90.375 363.5,89.965C363.785,89.574 364.09,89.223 364.469,88.918C364.871,88.598 365.168,88.254 365.383,87.789C365.664,87.172 366.223,86.848 366.84,86.598C367.48,86.34 368.094,86.109 368.793,86.176C369.402,86.223 370.02,86.473 370.621,86.313C371.254,86.137 371.871,86 372.527,86.051C373.188,86.102 373.738,86.305 374.297,85.832C374.906,84.859 375.395,83.633 376.594,83.313C377.137,83.164 377.461,82.758 376.992,82.266C376.293,81.531 376.445,80.598 377.23,80.004C377.496,79.805 377.727,79.582 377.941,79.336C378.094,79.113 378.258,78.941 378.508,78.813C379.133,78.496 379.465,79.23 379.328,79.77C379.234,80.152 379.23,80.16 379.141,80.434C379.063,80.668 378.992,80.906 378.969,81.156C378.961,81.23 379.148,81.594 379.391,81.977C379.629,82.359 379.914,82.746 380.023,82.844C380.203,83 380.43,83.063 380.613,82.875C381.09,82.383 381.449,81.859 382.02,81.457C382.375,81.207 382.516,81.027 382.711,80.633C383.246,79.547 384.539,78.695 385.758,79.145C386.352,79.363 386.16,80.121 385.906,80.484C385.719,80.754 385.633,81.047 385.66,81.371C385.676,81.527 385.703,81.859 385.957,81.777C386.285,81.668 386.621,81.184 386.809,80.898C386.891,80.77 386.926,80.684 386.949,80.531C387.023,80.004 387.176,79.648 387.551,79.266C387.77,79.039 388.137,78.82 388.25,78.52C388.332,78.305 388.379,77.957 388.551,77.805C388.605,77.566 388.605,77.344 388.801,77.191C389.012,76.859 389.246,76.508 389.203,76.094C389.172,75.773 389.207,75.445 389.25,75.129C389.324,74.586 389.805,74.355 390.309,74.301C390.66,74.266 390.914,74.176 391.035,73.844C391.191,73.418 391.285,73.055 391.594,72.711C391.957,72.262 392.402,71.406 393.062,71.469C393.469,71.504 394.52,71.773 394.422,71.027C394.41,70.93 394.281,70.645 394.137,70.395C393.922,70.016 393.914,69.863 394.105,69.504C394.445,69.16 394.656,68.949 394.562,68.441C394.512,68.145 394.477,67.941 394.645,67.703C394.902,67.344 395.348,66.848 395.301,66.375C395.238,65.738 394.598,65.926 394.219,66.164C393.949,66.336 393.652,66.488 393.316,66.465C392.723,66.426 392.602,65.707 392.695,65.254L392.789,64.797C392.234,64.328 391.633,63.871 390.879,64.098C390.293,64.156 389.941,64.391 389.563,64.848C389.32,65.133 388.711,65.598 388.48,65.023C388.355,64.715 388.293,64.41 388.426,64.102C388.746,63.691 388.914,63.082 389.43,62.871C389.559,62.82 389.934,62.75 390.262,62.719C390.719,62.672 391.164,62.648 391.555,62.402C392.133,62.039 392.691,61.629 393.387,61.918C393.66,62.035 393.887,62.172 394.184,62.242C394.672,62.352 395.203,62.914 395.723,62.586C396.133,62.328 396.578,61.828 396.75,61.359C396.816,61.18 396.988,60.785 396.918,60.609C396.906,60.582 396.906,60.484 396.926,60.332C396.941,60.203 396.883,59.918 396.793,59.699C396.617,59.254 396.484,58.922 396.563,58.453C396.691,58.262 396.789,58.09 396.867,57.871C396.996,57.484 397.285,57.246 397.668,57.098C398.176,56.898 398.441,56.613 398.715,56.141C399.039,55.586 399.613,55.156 399.313,54.508C398.965,54.219 398.465,53.832 398.512,53.316C398.586,52.461 398.758,51.859 399.605,51.508C400.137,51.285 400.555,51 400.863,50.504C401.168,50.016 401.246,49.785 400.984,49.242C400.688,48.629 400.676,48.309 401.238,47.949C401.594,47.727 401.738,47.418 401.824,47.02C401.922,46.559 402.176,46.199 402.652,46.145C403.023,46.074 403.469,46.043 403.758,45.781C404.289,45.297 404.664,44.793 404.84,44.078C404.996,43.422 405.277,42.344 405.941,42.008C406.344,41.805 406.785,41.945 407.117,42.207C407.203,42.273 407.254,42.297 407.445,42.359C408.156,42.582 408.699,43.594 408.617,44.316C408.563,44.793 408.523,45.32 408.859,45.711C409.41,46.344 410.207,46.871 410.445,47.711C410.543,48.051 410.672,48.16 411.023,48.035C411.223,47.965 411.465,47.953 411.676,48.004C411.879,48.055 412.004,48.086 412.199,48.035C412.645,48.137 412.961,48.184 413.363,47.93C413.648,47.488 413.883,47.039 413.828,46.5C413.785,46.063 413.781,45.734 414.273,45.664C414.852,45.582 415.328,45.422 415.676,44.922C415.914,44.527 416.152,44.133 416.398,43.746C416.547,43.258 416.66,42.77 417.203,42.559C417.605,42.406 417.688,42.723 417.723,43.059C417.754,43.398 417.766,43.73 417.758,44.07C417.785,44.703 417.898,45.246 417.531,45.809C417.242,46.25 417.141,46.813 417.188,47.332C417.23,47.617 417.277,47.898 417.27,48.188C417.266,48.645 417.461,49.062 417.703,49.449C417.84,49.66 418.187,50.113 418.477,50.453C418.957,51.008 419.016,51.105 419.113,51.461C419.223,51.871 419.348,52.156 419.813,52.109C420.008,52.094 420.301,52.039 420.461,51.992C420.805,51.895 421.418,51.605 421.316,51.18C421.281,51.027 421.254,50.918 421.281,50.766C421.348,50.34 421.82,50.562 422,50.734C422.438,51.141 423.004,51.293 423.453,50.82C424.02,50.23 424.801,49.801 425.074,48.988C425.191,48.637 425.422,48.34 425.668,48.063C426.016,47.668 426.352,47.262 426.641,46.816C427.039,46.332 427.387,46.09 428.035,46.133C428.563,46.449 429.059,46.813 429.699,46.699C429.859,46.668 429.988,46.668 430.148,46.688C430.348,46.711 430.539,46.703 430.734,46.688C431.512,46.609 432.246,46.703 432.633,47.461C432.762,47.711 433.078,48.566 433.492,48.305C433.93,48.027 433.941,47.207 433.582,46.883C433.051,46.398 432.789,45.637 432.883,44.918C432.926,44.559 432.867,43.438 433.582,43.77C433.961,43.945 434.266,44.375 434.672,43.984C434.801,43.863 434.926,43.734 435.047,43.605C435.48,43.145 436.07,42.824 436.539,43.445C436.824,43.828 437.066,44.055 437.508,44.223C437.984,44.398 438.609,44.27 438.973,43.891C439.195,43.66 439.695,43.383 440.027,43.43C440.418,43.48 440.594,43.813 440.695,44.156C440.809,44.527 440.969,44.738 441.258,44.961C441.496,45.016 441.719,45.016 441.867,45.211C441.911,45.221 441.955,45.232 441.997,45.243C441.433,42.618 440.837,39.846 440.168,36.73C455.723,44.77 467.023,43.254 467.277,20.789C479.99,29.631 489.723,40.848 502.188,42.708C502.052,41.588 501.823,40.366 501.492,39.031C505.02,38.355 508.551,37.684 512.957,36.82C511.895,31.871 510.867,27.078 509.555,20.973C525.109,29.008 536.41,27.496 536.664,5.031C548.779,13.458 558.189,24.039 569.835,26.625C569.882,26.463 569.958,26.308 570.043,26.188L570.313,25.805C569.992,25.152 569.621,24.496 568.84,24.402C568.281,24.223 567.867,24.293 567.332,24.563C567,24.727 566.254,24.91 566.273,24.293C566.285,23.957 566.344,23.652 566.59,23.426C567.047,23.176 567.445,22.684 568.004,22.699C568.141,22.703 568.512,22.789 568.828,22.891C569.266,23.031 569.684,23.188 570.141,23.117C570.816,23.016 571.492,22.863 572.012,23.406C572.219,23.621 572.367,23.84 572.613,24.023C573.016,24.32 573.277,25.047 573.887,24.953C574.363,24.883 574.973,24.598 575.316,24.238C575.449,24.102 575.766,23.809 575.77,23.621C575.77,23.59 575.813,23.5 575.891,23.367C575.957,23.254 576.016,22.973 576.023,22.734C576.035,22.258 576.051,21.898 576.309,21.5C576.504,21.379 576.664,21.262 576.82,21.086C577.094,20.785 577.453,20.684 577.863,20.699C578.41,20.723 578.766,20.566 579.207,20.242C579.723,19.863 580.422,19.703 580.41,18.984C580.203,18.582 579.898,18.023 580.148,17.574C580.559,16.82 580.957,16.336 581.875,16.352C582.453,16.359 582.949,16.27 583.43,15.938C583.906,15.609 584.07,15.43 584.043,14.828C584.016,14.148 584.137,13.848 584.797,13.746C585.207,13.684 585.465,13.457 585.703,13.125C585.98,12.742 586.352,12.516 586.813,12.656C587.18,12.742 587.602,12.891 587.973,12.766C588.652,12.535 589.199,12.223 589.641,11.637C590.051,11.102 590.742,10.223 591.484,10.18C591.934,10.156 592.281,10.461 592.48,10.836C592.531,10.93 592.57,10.973 592.723,11.105C593.281,11.594 593.375,12.738 593.012,13.367C592.77,13.781 592.523,14.246 592.676,14.742C592.926,15.543 593.445,16.344 593.328,17.211C593.281,17.559 593.355,17.711 593.727,17.738C593.941,17.75 594.168,17.836 594.34,17.969C594.508,18.098 594.609,18.18 594.809,18.211C595.172,18.477 595.445,18.648 595.918,18.574C596.352,18.285 596.75,17.965 596.914,17.453C597.051,17.035 597.176,16.73 597.656,16.863C598.219,17.02 598.723,17.063 599.238,16.742C599.613,16.477 599.992,16.211 600.371,15.957C600.699,15.57 601,15.164 601.582,15.191C602.016,15.211 601.961,15.535 601.855,15.855C601.754,16.18 601.629,16.488 601.488,16.797C601.258,17.391 601.145,17.93 600.582,18.297C600.141,18.59 599.824,19.063 599.656,19.559C599.586,19.836 599.516,20.113 599.395,20.375C599.203,20.793 599.219,21.25 599.285,21.703C599.324,21.953 599.461,22.508 599.594,22.934C599.809,23.637 599.828,23.75 599.773,24.109C599.711,24.531 599.711,24.84 600.156,24.988C600.34,25.051 600.629,25.117 600.793,25.141C601.148,25.184 601.828,25.168 601.906,24.738C601.934,24.582 601.953,24.473 602.035,24.344C602.27,23.98 602.613,24.371 602.711,24.602C602.945,25.148 603.406,25.516 604.008,25.266C604.762,24.949 605.648,24.867 606.223,24.23C606.473,23.957 606.805,23.773 607.141,23.617C607.617,23.398 608.086,23.16 608.527,22.867C609.086,22.582 609.508,22.5 610.082,22.797C610.438,23.301 610.746,23.832 611.383,23.984C611.539,24.02 611.656,24.07 611.797,24.152C611.969,24.254 612.148,24.324 612.336,24.387C612.548,24.455 612.752,24.536 612.937,24.636C613.031,23.429 613.086,22.147 613.102,20.789C613.994,21.409 614.871,22.042 615.736,22.681C615.852,22.657 615.978,22.7 616.113,22.852C616.176,22.923 616.23,23.006 616.282,23.088C616.476,23.233 616.67,23.379 616.862,23.524C616.911,23.519 616.965,23.506 617.023,23.484C617.191,23.422 617.355,23.355 617.52,23.285C618.102,23.039 618.77,22.98 618.949,23.738C619.059,24.203 619.191,24.508 619.531,24.836C619.895,25.187 620.516,25.316 621,25.117C621.297,24.992 621.867,24.941 622.152,25.117C622.488,25.32 622.52,25.695 622.477,26.051C622.43,26.438 622.492,26.695 622.668,27.016C622.867,27.16 623.07,27.246 623.129,27.488C623.379,27.672 623.594,27.867 623.766,28.133C624.071,28.605 624.895,29.062 624.647,29.678C624.791,29.793 624.935,29.909 625.079,30.025C625.675,29.728 626.607,29.675 626.965,30.281L627.059,30.445C627.238,30.891 627.406,31.352 627.684,31.746C627.803,31.916 627.877,32.094 627.914,32.276C629.443,33.472 630.961,34.621 632.483,35.692C632.635,35.755 632.791,35.8 632.953,35.84C633.387,35.949 634.453,36.059 634.754,35.582C634.922,35.32 635.012,35.09 635.262,34.91C635.75,34.559 636.328,34.324 636.926,34.426C637.164,34.465 637.473,34.539 637.656,34.344C637.68,34.063 637.68,33.754 637.836,33.504C637.953,33.313 638.082,33.137 638.215,32.957C638.285,32.617 638.414,32.398 638.73,32.219C638.871,32.137 639.012,32.059 639.16,31.988C639.434,31.863 640.109,31.199 640.344,31.766C640.375,31.844 640.371,31.969 640.332,32.047L640.258,32.184C639.777,32.516 639.23,32.875 639.617,33.496C639.762,33.727 640.195,34.246 640.508,34.23C640.898,34.207 641.281,34.488 641.23,34.887C641.113,35.273 641.008,35.621 640.695,35.898C640.391,36.168 639.84,36.059 639.488,35.973C639.258,35.918 638.59,35.543 638.402,35.871C638.375,35.922 638.418,36.121 638.492,36.32C638.707,36.871 638.859,37.531 638.539,38.066C638.379,38.332 638.215,38.598 638.07,38.875C638.023,38.964 637.977,39.049 637.929,39.13C643.8,42.343 649.965,43.952 657.211,42.344C661.078,47.297 665.49,51.597 670.028,55.767C674.712,53.511 677.523,47.527 677.648,36.449C693.313,47.348 704.453,61.844 721.754,58.004C734.082,73.797 751.957,82.949 761.797,102.391C765.391,109.49 766.958,116.808 768,124.125L768,576L370.203,576L370.203,575.84L275.358,575.84C275.321,575.893 275.285,575.947 275.249,576ZM181.713,301.138C182.109,301.166 182.487,301.12 182.773,300.844C182.852,300.77 182.945,300.703 183.09,300.621C183.37,300.461 183.605,300.258 183.829,300.029L183.645,299.852C182.861,300.099 182.065,300.396 181.713,301.138ZM186.274,298.401C186.346,298.37 186.419,298.341 186.492,298.313C186.666,298.244 186.85,298.218 187.034,298.228C187.033,298.228 187.032,298.227 187.031,298.227C186.661,298.042 186.421,298.163 186.274,298.401ZM190.738,302.202C190.748,302.219 190.758,302.236 190.768,302.253C190.776,302.238 190.784,302.222 190.792,302.207C190.774,302.205 190.756,302.204 190.738,302.202ZM347.744,135.138C348.93,136.087 350.105,137.017 351.276,137.914C351.313,137.822 351.361,137.726 351.422,137.625C351.785,137.027 352.109,136.348 351.934,135.629C351.848,135.277 351.828,134.992 351.867,134.641C351.891,134.418 351.914,134.199 351.883,133.973C351.836,133.594 351.477,133.75 351.262,133.887C350.426,134.414 349.34,135.004 348.316,135.07C348.113,135.085 347.927,135.113 347.744,135.138ZM233.617,197.07L233.98,197.426C234.004,197.594 234.086,197.703 234.195,197.836C234.941,198.75 234.629,200.313 233.508,200.699C233.109,200.836 232.371,201.207 232.133,200.656C232.082,200.539 232.066,200.176 232.094,199.848C232.18,198.887 231.18,197.133 232.391,196.625C232.836,196.437 233.313,196.773 233.617,197.07ZM178.875,291.957C179.27,292.559 179.953,293.414 179.953,294.152C179.953,294.902 178.789,294.371 178.539,294.164C177.887,293.621 177.188,292.93 177.578,291.984C177.875,291.758 178.621,291.57 178.875,291.957ZM229.18,203.223C229.59,203.586 230.059,204.68 229.504,205.125C229.273,205.309 229.117,205.469 228.801,205.363C228.242,205.176 227.293,204.293 227.418,203.629C227.559,202.844 228.676,202.773 229.18,203.223ZM172.23,250.734C172.605,251.066 173.066,251.922 172.539,252.344C172.258,252.566 172.016,252.77 171.668,252.496C171.25,252.168 171.039,251.449 171.188,250.949C171.352,250.398 171.742,250.301 172.23,250.734ZM176.414,299.906C177.102,300.559 176.004,301.367 175.512,300.605C175.035,299.867 175.785,299.305 176.414,299.906ZM388,73.566C388.039,73.793 388.086,74.016 388.137,74.238C388.289,74.867 388.016,75.422 387.395,75.684C387.008,75.844 386.703,76.156 386.43,76.465C386.063,76.875 385.625,77.023 385.109,76.879C384.5,76.711 383.395,76.559 383.316,75.758C383.246,75.047 383.262,74.367 383.027,73.672C383.047,73.492 383.063,73.316 383.059,73.137C383.164,73.039 383.211,72.934 383.258,72.797C383.418,72.324 383.879,72.043 384.293,71.82C384.637,71.641 384.969,71.457 385.305,71.262C385.824,70.961 386.121,70.945 386.453,71.469C386.598,71.699 386.813,71.945 386.93,72.02C387.051,72.094 387.227,72.273 387.32,72.418C387.609,72.852 387.91,73.004 388,73.566ZM314.398,111.191C314.371,111.535 314.359,111.887 314.133,112.164C314.074,112.234 313.664,112.473 313.219,112.699C312.59,113.016 312.117,113.324 311.52,112.906C311.008,112.547 310.797,111.746 310.652,111.168C310.453,110.359 311.523,110.008 312.172,109.906C312.508,109.855 312.848,109.945 313.121,110.148C313.57,110.477 314.465,110.445 314.398,111.191ZM321.746,139.953C321.676,140.727 321.367,141.734 320.461,141.875C319.977,141.949 319.371,141.609 319.105,141.191C318.871,140.816 318.621,139.969 319.047,139.586C319.07,139.566 319.109,139.477 319.156,139.332C319.352,138.754 320.039,138.379 320.574,138.766C321.02,139.086 321.805,139.285 321.746,139.953ZM329.016,134.145C328.949,134.648 328.086,135.199 327.633,135.27C327.164,135.34 326.746,135.25 326.516,134.797C326.277,134.324 326.438,133.453 326.992,133.266C327.102,133.23 327.5,133.266 327.883,133.348C328.316,133.438 329.102,133.488 329.016,134.145ZM396.051,58.289C395.816,58.801 395.535,59.621 395.043,59.93C394.539,60.246 394.406,59.246 394.438,58.992C394.527,58.328 394.695,57.57 395.488,57.434C395.766,57.535 396.207,57.957 396.051,58.289ZM420.777,36.5C420.711,36.891 420.336,37.559 419.832,37.387C419.566,37.293 419.328,37.215 419.363,36.867C419.406,36.449 419.797,36.004 420.191,35.895C420.629,35.773 420.859,35.992 420.777,36.5ZM389.711,59.988C389.563,60.723 388.562,60.332 388.863,59.68C389.152,59.051 389.844,59.316 389.711,59.988ZM575.906,21.148C575.484,21.523 574.898,22.16 574.324,22.246C573.738,22.336 574.012,21.367 574.148,21.145C574.492,20.57 574.949,19.941 575.734,20.137C575.945,20.34 576.18,20.902 575.906,21.148ZM607.281,11.066C607.066,11.398 606.457,11.859 606.063,11.5C605.855,11.309 605.668,11.141 605.84,10.84C606.047,10.473 606.582,10.223 606.988,10.277C607.438,10.34 607.563,10.637 607.281,11.066ZM569.414,20.168C568.984,20.781 568.223,20.02 568.758,19.547C569.277,19.086 569.805,19.605 569.414,20.168ZM54.777,440.621L55.145,440.453C55.273,440.484 55.375,440.457 55.504,440.414C56.391,440.125 57.453,440.797 57.422,441.73C57.41,442.063 57.473,442.711 57,442.73C56.898,442.734 56.625,442.645 56.395,442.531C55.707,442.195 54.137,442.438 54.102,441.398C54.09,441.02 54.473,440.762 54.777,440.621ZM58.055,445.633C58.437,445.438 59.375,445.398 59.547,445.934C59.617,446.156 59.691,446.316 59.523,446.52C59.227,446.879 58.309,447.328 57.852,447.051C57.316,446.723 57.582,445.879 58.055,445.633ZM69.602,389.184C70.16,388.871 70.867,389.277 71.031,389.84C71.137,390.191 70.543,390.539 70.309,390.66C69.941,390.727 69.547,390.828 69.246,390.543C68.879,390.195 69.211,389.402 69.602,389.184ZM75.723,389.227C76.102,389.188 76.734,389.566 76.434,389.996C76.199,390.332 75.637,390.074 75.461,389.813C75.324,389.609 75.48,389.25 75.723,389.227ZM11.266,563.645L11.629,563.477C11.762,563.508 11.863,563.477 11.992,563.434C12.879,563.145 13.941,563.816 13.91,564.75C13.898,565.082 13.961,565.734 13.488,565.754C13.387,565.758 13.113,565.668 12.879,565.555C12.195,565.215 10.621,565.457 10.59,564.422C10.578,564.039 10.961,563.785 11.266,563.645ZM14.543,568.656C14.926,568.457 15.863,568.418 16.035,568.957C16.105,569.176 16.18,569.336 16.012,569.543C15.715,569.898 14.797,570.352 14.34,570.07C13.805,569.742 14.07,568.902 14.543,568.656ZM26.086,512.207C26.648,511.895 27.355,512.301 27.52,512.859C27.621,513.215 27.031,513.559 26.797,513.68C26.426,513.746 26.031,513.852 25.734,513.566C25.367,513.215 25.699,512.426 26.086,512.207ZM33,512.774L33,512.81C32.996,512.877 32.972,512.948 32.922,513.02C32.688,513.355 32.125,513.094 31.949,512.832C31.813,512.633 31.969,512.273 32.211,512.25C32.515,512.219 32.983,512.457 33,512.774Z"/>
    </g>
</svg>
