<?xml version="1.0" encoding="UTF-8" standalone="no"?>
<!DOCTYPE svg PUBLIC "-//W3C//DTD SVG 1.1//EN" "http://www.w3.org/Graphics/SVG/1.1/DTD/svg11.dtd">
<svg width="100%" height="100%" viewBox="0 0 670 253" version="1.1" xmlns="http://www.w3.org/2000/svg" xmlns:xlink="http://www.w3.org/1999/xlink" xml:space="preserve" xmlns:serif="http://www.serif.com/" style="fill-rule:evenodd;clip-rule:evenodd;stroke-linejoin:round;stroke-miterlimit:2;">
    <g transform="matrix(1.33333,0,0,1.33333,-4.52083,249.188)">
        <path d="M33.141,2.313C25.535,2.313 19.555,1.316 15.203,-0.672C10.859,-2.672 7.801,-5.367 6.031,-8.766C4.27,-12.16 3.391,-15.938 3.391,-20.094L3.391,-61.656L27.984,-61.656L27.984,-19.969C28.066,-18.789 28.398,-17.836 28.984,-17.109C29.578,-16.391 30.555,-16.031 31.922,-16.031C34.453,-16.031 35.719,-17.344 35.719,-19.969C35.719,-24.758 35.625,-29.375 35.438,-33.813C35.258,-38.25 34.945,-42.328 34.5,-46.047C33.5,-55.191 32.07,-63.047 30.219,-69.609C28.363,-76.172 26.258,-82.031 23.906,-87.188C21.551,-92.352 19.195,-97.242 16.844,-101.859C14.488,-106.484 12.289,-111.328 10.25,-116.391C8.219,-121.461 6.586,-127.234 5.359,-133.703C4.141,-140.18 3.531,-147.906 3.531,-156.875L3.531,-164.203C3.707,-172.266 6.172,-178.063 10.922,-181.594C15.68,-185.125 22.453,-186.891 31.234,-186.891C41.109,-186.891 48.352,-184.875 52.969,-180.844C57.582,-176.813 59.891,-171.352 59.891,-164.469L59.891,-133.375L36.125,-133.375L36.125,-164.609C36.125,-167.234 34.859,-168.547 32.328,-168.547C29.703,-168.547 28.391,-167.234 28.391,-164.609C28.391,-161.441 28.523,-158.316 28.797,-155.234C29.066,-152.16 29.383,-149.313 29.75,-146.688C30.738,-140.164 32.18,-134.367 34.078,-129.297C35.984,-124.223 38.113,-119.352 40.469,-114.688C42.82,-110.031 45.176,-105.145 47.531,-100.031C49.883,-94.914 52.078,-89.098 54.109,-82.578C56.148,-76.055 57.781,-68.445 59,-59.75C60.227,-51.063 60.844,-40.742 60.844,-28.797L60.844,-19.016C60.75,-11.859 58.164,-6.516 53.094,-2.984C48.031,0.547 41.379,2.313 33.141,2.313Z" style="fill:white;fill-rule:nonzero;"/>
    </g>
    <g transform="matrix(1.33333,0,0,1.33333,81.1377,249.188)">
        <path d="M37.344,0L36.531,-28.797L28.922,-28.797L28.109,0L0.953,0L17.391,-184.719L47.938,-184.719L64.375,0L37.344,0ZM29.344,-44.813L35.984,-44.813L33.141,-138.813L32.047,-138.813L29.344,-44.813Z" style="fill:white;fill-rule:nonzero;"/>
    </g>
    <g transform="matrix(1.33333,0,0,1.33333,168.245,249.188)">
        <path d="M19.563,0L19.563,-57.719L1.094,-184.719L28.391,-184.719L32.328,-90.594L33.547,-90.594L37.078,-184.719L64.781,-184.719L46.578,-57.859L46.578,0L19.563,0Z" style="fill:white;fill-rule:nonzero;"/>
    </g>
    <g transform="matrix(1.33333,0,0,1.33333,296.461,249.188)">
        <path d="M3.531,0L3.531,-184.719L30.016,-184.719L30.016,-101.453L37.625,-101.453L37.625,-184.719L64.109,-184.719L64.109,0L37.625,0L37.625,-82.578L30.016,-82.578L30.016,0L3.531,0Z" style="fill:white;fill-rule:nonzero;"/>
    </g>
    <g transform="matrix(1.33333,0,0,1.33333,386.647,249.188)">
        <path d="M3.531,0L3.531,-184.719L49.703,-184.719L49.703,-165.563L30.969,-165.563L30.969,-99.141L45.766,-99.141L45.766,-84.203L30.969,-84.203L30.969,-18.609L49.984,-18.609L49.984,0L3.531,0Z" style="fill:white;fill-rule:nonzero;"/>
    </g>
    <g transform="matrix(1.33333,0,0,1.33333,454.558,249.188)">
        <path d="M3.531,0L3.531,-184.719L30.563,-184.719L30.563,-19.969L45.641,-19.969L45.641,0L3.531,0Z" style="fill:white;fill-rule:nonzero;"/>
    </g>
    <g transform="matrix(1.33333,0,0,1.33333,517.942,249.188)">
        <path d="M3.531,0L3.531,-184.719L30.563,-184.719L30.563,-19.969L45.641,-19.969L45.641,0L3.531,0Z" style="fill:white;fill-rule:nonzero;"/>
    </g>
    <g transform="matrix(1.33333,0,0,1.33333,581.326,249.188)">
        <path d="M2.984,-27.438L2.984,-158.359C2.984,-167.598 5.656,-174.66 11,-179.547C16.344,-184.441 24.223,-186.891 34.641,-186.891C55.734,-186.891 66.281,-177.063 66.281,-157.406L66.281,-27.438C66.281,-7.695 55.734,2.172 34.641,2.172C24.223,2.172 16.523,-0.316 11.547,-5.297C6.566,-10.273 3.711,-17.656 2.984,-27.438ZM30.828,-24.313C30.828,-21.688 32.098,-20.375 34.641,-20.375C37.172,-20.375 38.438,-21.688 38.438,-24.313L38.438,-160.406C38.438,-163.031 37.172,-164.344 34.641,-164.344C32.098,-164.344 30.828,-163.031 30.828,-160.406L30.828,-24.313Z" style="fill:white;fill-rule:nonzero;"/>
    </g>
</svg>
