<?xml version="1.0" encoding="UTF-8" standalone="no"?>
<!DOCTYPE svg PUBLIC "-//W3C//DTD SVG 1.1//EN" "http://www.w3.org/Graphics/SVG/1.1/DTD/svg11.dtd">
<svg width="100%" height="100%" viewBox="0 0 885 253" version="1.1" xmlns="http://www.w3.org/2000/svg" xmlns:xlink="http://www.w3.org/1999/xlink" xml:space="preserve" xmlns:serif="http://www.serif.com/" style="fill-rule:evenodd;clip-rule:evenodd;stroke-linejoin:round;stroke-miterlimit:2;">
    <g transform="matrix(1.33333,0,0,1.33333,-1.08333,249.188)">
        <g>
            <path d="M11.547,0L11.547,-164.063L0.813,-164.063L0.813,-184.719L49.172,-184.719L49.172,-164.063L38.438,-164.063L38.438,0L11.547,0Z" style="fill:rgb(200,200,200);fill-rule:nonzero;"/>
        </g>
    </g>
    <g transform="matrix(1.33333,0,0,1.33333,65.7412,249.188)">
        <g>
            <path d="M3.531,0L3.531,-184.719L30.016,-184.719L30.016,-101.453L37.625,-101.453L37.625,-184.719L64.109,-184.719L64.109,0L37.625,0L37.625,-82.578L30.016,-82.578L30.016,0L3.531,0Z" style="fill:rgb(200,200,200);fill-rule:nonzero;"/>
        </g>
    </g>
    <g transform="matrix(1.33333,0,0,1.33333,155.927,249.188)">
        <g>
            <path d="M3.531,0L3.531,-184.719L49.703,-184.719L49.703,-165.563L30.969,-165.563L30.969,-99.141L45.766,-99.141L45.766,-84.203L30.969,-84.203L30.969,-18.609L49.984,-18.609L49.984,0L3.531,0Z" style="fill:rgb(200,200,200);fill-rule:nonzero;"/>
        </g>
    </g>
    <g transform="matrix(1.33333,0,0,1.33333,264.223,249.188)">
        <g>
            <path d="M3.531,0L3.531,-184.719L33.688,-184.719C54.508,-184.719 64.922,-175.301 64.922,-156.469L64.922,-28.391C64.922,-9.461 54.551,0 33.813,0L3.531,0ZM29.875,-21.859L33.406,-21.859C34.945,-21.859 36.008,-22.332 36.594,-23.281C37.188,-24.238 37.484,-25.895 37.484,-28.25L37.484,-156.328C37.484,-158.773 37.188,-160.473 36.594,-161.422C36.008,-162.367 34.945,-162.844 33.406,-162.844L29.875,-162.844L29.875,-21.859Z" style="fill:rgb(200,200,200);fill-rule:nonzero;"/>
        </g>
    </g>
    <g transform="matrix(1.33333,0,0,1.33333,354.771,249.188)">
        <g>
            <path d="M2.984,-27.438L2.984,-158.359C2.984,-167.598 5.656,-174.66 11,-179.547C16.344,-184.441 24.223,-186.891 34.641,-186.891C55.734,-186.891 66.281,-177.063 66.281,-157.406L66.281,-27.438C66.281,-7.695 55.734,2.172 34.641,2.172C24.223,2.172 16.523,-0.316 11.547,-5.297C6.566,-10.273 3.711,-17.656 2.984,-27.438ZM30.828,-24.313C30.828,-21.688 32.098,-20.375 34.641,-20.375C37.172,-20.375 38.438,-21.688 38.438,-24.313L38.438,-160.406C38.438,-163.031 37.172,-164.344 34.641,-164.344C32.098,-164.344 30.828,-163.031 30.828,-160.406L30.828,-24.313Z" style="fill:rgb(200,200,200);fill-rule:nonzero;"/>
        </g>
    </g>
    <g transform="matrix(1.33333,0,0,1.33333,447.13,249.188)">
        <g>
            <rect x="3.531" y="-86.25" width="41.281" height="18.75" style="fill:rgb(200,200,200);"/>
        </g>
    </g>
    <g transform="matrix(1.33333,0,0,1.33333,511.419,249.188)">
        <g>
            <path d="M2.984,-27.438L2.984,-158.359C2.984,-167.598 5.656,-174.66 11,-179.547C16.344,-184.441 24.223,-186.891 34.641,-186.891C55.734,-186.891 66.281,-177.063 66.281,-157.406L66.281,-27.438C66.281,-7.695 55.734,2.172 34.641,2.172C24.223,2.172 16.523,-0.316 11.547,-5.297C6.566,-10.273 3.711,-17.656 2.984,-27.438ZM30.828,-24.313C30.828,-21.688 32.098,-20.375 34.641,-20.375C37.172,-20.375 38.438,-21.688 38.438,-24.313L38.438,-160.406C38.438,-163.031 37.172,-164.344 34.641,-164.344C32.098,-164.344 30.828,-163.031 30.828,-160.406L30.828,-24.313Z" style="fill:rgb(200,200,200);fill-rule:nonzero;"/>
        </g>
    </g>
    <g transform="matrix(1.33333,0,0,1.33333,603.778,249.188)">
        <g>
            <path d="M17.391,0L0.953,-184.719L28.109,-184.719L32.047,-45.906L33.281,-45.906L37.344,-184.719L64.375,-184.719L47.938,0L17.391,0Z" style="fill:rgb(200,200,200);fill-rule:nonzero;"/>
        </g>
    </g>
    <g transform="matrix(1.33333,0,0,1.33333,690.885,249.188)">
        <g>
            <path d="M3.531,0L3.531,-184.719L49.703,-184.719L49.703,-165.563L30.969,-165.563L30.969,-99.141L45.766,-99.141L45.766,-84.203L30.969,-84.203L30.969,-18.609L49.984,-18.609L49.984,0L3.531,0Z" style="fill:rgb(200,200,200);fill-rule:nonzero;"/>
        </g>
    </g>
    <g transform="matrix(1.33333,0,0,1.33333,758.797,249.188)">
        <g>
            <path d="M62.891,0L37.078,0L34.359,-69.125L29.469,-69.125L29.469,0L3.531,0L3.531,-184.719L32.328,-184.719C38.578,-184.719 43.961,-184.063 48.484,-182.75C53.016,-181.438 56.523,-179.102 59.016,-175.75C61.504,-172.395 62.75,-167.551 62.75,-161.219L62.75,-91.266C62.75,-87.461 62.203,-84.25 61.109,-81.625C60.023,-79 58.488,-76.828 56.5,-75.109L62.891,0ZM33,-85.156C35.719,-85.156 37.078,-86.969 37.078,-90.594L37.078,-160.531C37.078,-163.789 35.676,-165.422 32.875,-165.422L29.469,-165.422L29.469,-85.156L33,-85.156Z" style="fill:rgb(200,200,200);fill-rule:nonzero;"/>
        </g>
    </g>
    <g transform="matrix(1.33333,0,0,1.33333,846.628,249.188)">
        <g>
            <path d="M15.75,2.313C12.406,2.313 9.801,1.879 7.938,1.016C6.082,0.16 4.789,-1.578 4.063,-4.203C3.344,-6.836 2.984,-10.867 2.984,-16.297C2.984,-22.273 3.344,-26.711 4.063,-29.609C4.789,-32.504 6.082,-34.406 7.938,-35.313C9.801,-36.219 12.453,-36.672 15.891,-36.672C19.328,-36.672 21.953,-36.219 23.766,-35.313C25.578,-34.406 26.844,-32.504 27.563,-29.609C28.289,-26.711 28.656,-22.273 28.656,-16.297C28.656,-10.867 28.289,-6.836 27.563,-4.203C26.844,-1.578 25.555,0.16 23.703,1.016C21.848,1.879 19.195,2.313 15.75,2.313Z" style="fill:rgb(200,200,200);fill-rule:nonzero;"/>
        </g>
    </g>
</svg>
